<svg xmlns:svg="http://www.w3.org/2000/svg" width="24" height="24" viewBox="0 0 24 24">
  <path d="m 22.8,17.7 c 0,0.9 -0.7,1.6 -1.6,1.6 -0.9,0 -1.6,-0.7 -1.6,-1.6 0,-0.9 0.7,-1.6 1.6,-1.6 0.9,0 1.6,0.8 1.6,1.6 z m -11.1,0 c 0,0.9 -0.7,1.6 -1.6,1.6 -0.9,0 -1.6,-0.7 -1.6,-1.6 0,-0.9 0.7,-1.6 1.6,-1.6 0.9,0 1.6,0.8 1.6,1.6 z m 9.5,-8 H 18 v 7.8 h 1 c 0.1,-1.1 1.1,-2 2.2,-2 1.2,0 2.1,0.9 2.2,2 H 24 V 13.1 Z M 18.9,13 v -2.5 h 2 L 23,13 Z M 8.5,8 H 5.9 v 2 H 8.5 Z M 10,7.8 v 3.6 H 6.8 v 6.1 H 8 c 0.1,-1.1 1.1,-2 2.2,-2 1.2,0 2.1,0.9 2.2,2 h 5 V 7.8 Z M 8.6,7.9 H 5.4 V 4.7 H 3.2 V 7.9 H 0 V 10 h 3.2 v 3.2 H 5.3 V 10 H 8.5 V 7.9 Z"/>
</svg>
