<svg width="24" height="24" version="1.1" viewBox="0 0 24 24" xmlns="http://www.w3.org/2000/svg">
 <rect x="1" y="1" width="22" height="22" rx="11" fill="#1e8e3e"/>
 <path d="m10.787 16.996c0.3106 0 0.5508-0.129 0.7207-0.381l5.5078-8.578c0.1231-0.193 0.1758-0.357 0.1758-0.516 0-0.416-0.293-0.703-0.7148-0.703-0.2871 0-0.4629 0.106-0.6387 0.381l-5.0801 8.057-2.6074-3.346c-0.1758-0.228-0.3574-0.322-0.6152-0.322-0.4219 0-0.7266 0.299-0.7266 0.709 0 0.182 0.0644 0.357 0.2168 0.539l3.0351 3.785c0.2051 0.258 0.4219 0.375 0.7266 0.375z" fill="#fff"/>
</svg>
