<?xml version="1.0" encoding="UTF-8" standalone="no"?><!DOCTYPE svg PUBLIC "-//W3C//DTD SVG 1.1//EN" "http://www.w3.org/Graphics/SVG/1.1/DTD/svg11.dtd"><svg width="100%" height="100%" viewBox="0 0 120 120" version="1.1" xmlns="http://www.w3.org/2000/svg" xmlns:xlink="http://www.w3.org/1999/xlink" xml:space="preserve" xmlns:serif="http://www.serif.com/" style="fill-rule:evenodd;clip-rule:evenodd;stroke-linejoin:round;stroke-miterlimit:2;"><g><path d="M50.815,25.87c-0.019,-1.224 0.213,-2.439 0.68,-3.57c-17.561,3.972 -30.144,19.696 -30.17,37.7c0.113,2.408 2.124,4.327 4.535,4.327c2.41,0 4.422,-1.919 4.535,-4.327c0.024,-13.47 9.231,-25.309 22.28,-28.65c-1.202,-1.574 -1.856,-3.499 -1.86,-5.48Zm43.31,29.63c-2.485,0 -4.53,2.045 -4.53,4.53c-0.025,13.47 -9.231,25.309 -22.28,28.65c1.956,2.578 2.391,6.015 1.14,9c17.576,-3.956 30.179,-19.684 30.21,-37.7c-0.028,-2.47 -2.07,-4.486 -4.54,-4.48Z" style="fill:#669df6;fill-rule:nonzero;"/><path d="M111.985,50.82c1.331,0.003 2.646,0.3 3.85,0.87c-4.117,-27.541 -27.994,-48.146 -55.84,-48.19c-2.485,0 -4.53,2.045 -4.53,4.53c0,2.485 2.045,4.53 4.53,4.53c23.166,0.044 43.087,17.032 46.79,39.9c1.525,-1.063 3.34,-1.636 5.2,-1.64Zm-51.99,56.68c-23.166,-0.044 -43.088,-17.032 -46.79,-39.9c-2.65,1.83 -6.084,2.116 -9,0.75c4.131,27.507 27.975,48.085 55.79,48.15c2.485,0 4.53,-2.045 4.53,-4.53c0,-2.485 -2.045,-4.53 -4.53,-4.53l0,0.06Z" style="fill:#aecbfa;fill-rule:nonzero;"/><path d="M59.995,81.4c-11.74,0 -21.4,-9.66 -21.4,-21.4c0,-11.74 9.66,-21.4 21.4,-21.4c11.739,0 21.4,9.66 21.4,21.4c-0.017,11.733 -9.667,21.384 -21.4,21.4Zm0,-33.74c-6.77,0 -12.34,5.57 -12.34,12.34c0,6.77 5.57,12.34 12.34,12.34c6.769,0 12.34,-5.57 12.34,-12.34c-0.006,-6.767 -5.573,-12.335 -12.34,-12.34Zm52,7.69c-2.551,0 -4.65,2.099 -4.65,4.65c0,2.551 2.099,4.65 4.65,4.65c2.551,0 4.65,-2.099 4.65,-4.65c-0.006,-2.553 -2.108,-4.65 -4.66,-4.65l0.01,0Zm-52,-34.14l-0.01,0c-2.557,0 -4.66,2.104 -4.66,4.66c-0,2.556 2.103,4.66 4.66,4.66c2.556,0 4.66,-2.104 4.66,-4.66c-0,-2.553 -2.098,-4.655 -4.65,-4.66Zm-52,34.14c-2.547,0.005 -4.64,2.103 -4.64,4.65c-0,2.551 2.099,4.65 4.65,4.65c2.551,0 4.65,-2.099 4.65,-4.65c-0,-2.551 -2.099,-4.65 -4.65,-4.65l-0.01,0Zm52,34.15l-0.01,0c-2.557,0 -4.66,2.104 -4.66,4.66c-0,2.556 2.103,4.66 4.66,4.66c2.556,0 4.66,-2.104 4.66,-4.66l-0,-0.01c-0,-2.551 -2.099,-4.65 -4.65,-4.65Z" style="fill:#4285f4;fill-rule:nonzero;"/></g></svg>