<svg width="25" height="25" viewBox="0 0 25 25" fill="none" xmlns="http://www.w3.org/2000/svg">
    <path d="M14.5612 13.8749H17.5612L12.5455 8.90613L7.52991 13.8749H10.5299V17.9061H14.5612V13.8749ZM19.9049 10.9218C21.1862 11.0155 22.2799 11.5468 23.1862 12.5155C24.0924 13.453 24.5455 14.578 24.5455 15.8905C24.5455 17.2655 24.0455 18.453 23.0455 19.453C22.0768 20.4218 20.9049 20.9061 19.5299 20.9061H6.54553C4.88928 20.9061 3.46741 20.328 2.27991 19.1718C1.12366 17.9843 0.545532 16.5624 0.545532 14.9061C0.545532 13.4374 1.06116 12.1249 2.09241 10.9686C3.15491 9.78113 4.42053 9.10925 5.88928 8.953C6.54553 7.73425 7.46741 6.74988 8.65491 5.99988C9.84241 5.24988 11.1393 4.87488 12.5455 4.87488C14.233 4.87488 15.7955 5.46863 17.233 6.65613C18.7018 7.84363 19.5924 9.2655 19.9049 10.9218Z" fill="#4285f4"/>
    </svg>    