<?xml version="1.0" encoding="UTF-8" standalone="no"?><!DOCTYPE svg PUBLIC "-//W3C//DTD SVG 1.1//EN" "http://www.w3.org/Graphics/SVG/1.1/DTD/svg11.dtd"><svg width="100%" height="100%" viewBox="0 0 120 120" version="1.1" xmlns="http://www.w3.org/2000/svg" xmlns:xlink="http://www.w3.org/1999/xlink" xml:space="preserve" xmlns:serif="http://www.serif.com/" style="fill-rule:evenodd;clip-rule:evenodd;stroke-linejoin:round;stroke-miterlimit:2;"><path d="M37.075,92.22c-6.832,0.049 -12.433,5.668 -12.46,12.5c0,0.5 0,1 0.09,1.5c0.772,6.226 6.121,10.952 12.395,10.952c6.273,0 11.622,-4.726 12.395,-10.952c0,-0.5 0.09,-1 0.09,-1.5c-0.028,-6.851 -5.66,-12.478 -12.51,-12.5Zm0,20.43c-4.389,0 -8,-3.611 -8,-8c0,-4.389 3.611,-8 8,-8c4.389,0 8,3.611 8,8l0,0.07c-0.006,4.352 -3.588,7.93 -7.94,7.93l-0.06,0Z" style="fill:#aecbfa;fill-rule:nonzero;"/><path d="M95.305,13.78c-0.773,-6.226 -6.122,-10.952 -12.395,-10.952c-6.274,0 -11.623,4.726 -12.395,10.952c0,0.5 -0.09,1 -0.09,1.5c0,6.857 5.642,12.5 12.5,12.5c6.857,0 12.5,-5.643 12.5,-12.5c-0.03,-0.5 -0.08,-1 -0.12,-1.5Zm-12.37,9.47l-0.07,0c-4.389,0 -8,-3.611 -8,-8c0,-4.388 3.611,-8 8,-8c4.388,0 8,3.611 8,8c0,4.362 -3.568,7.962 -7.93,8Z" style="fill:#aecbfa;fill-rule:nonzero;"/><path d="M64.505,48.4c-2.911,-1.146 -6.15,-1.146 -9.06,0c-4.771,1.859 -7.929,6.48 -7.929,11.6c0,5.12 3.158,9.741 7.929,11.6c2.91,1.146 6.149,1.146 9.06,0c4.77,-1.859 7.928,-6.48 7.928,-11.6c0,-5.12 -3.158,-9.741 -7.928,-11.6Zm-4.5,19.53c-4.351,0 -7.93,-3.58 -7.93,-7.93c0,-4.35 3.579,-7.93 7.93,-7.93c4.35,0 7.93,3.58 7.93,7.93l0,0.03c0,4.334 -3.566,7.9 -7.9,7.9l-0.03,0Z" style="fill:#aecbfa;fill-rule:nonzero;"/><path d="M55.505,71.6l0,10.2c-0.007,6.227 -3.189,12.038 -8.43,15.4c1.646,2.161 2.539,4.803 2.54,7.52c0,0.5 0,1 -0.09,1.5c9.19,-4.65 14.999,-14.12 14.98,-24.42l0,-10.2c-2.911,1.146 -6.15,1.146 -9.06,-0l0.06,-0Z" style="fill:#4285f4;fill-rule:nonzero;"/><path d="M18.725,81.8l0,-20.21c0,-2.485 -2.045,-4.53 -4.53,-4.53c-2.485,0 -4.53,2.045 -4.53,4.53l0,20.21c-0.011,10.303 5.805,19.772 15,24.42c0,-0.5 -0.09,-1 -0.09,-1.5c0,-2.717 0.893,-5.359 2.54,-7.52c-5.227,-3.371 -8.392,-9.181 -8.39,-15.4Z" style="fill:#4285f4;fill-rule:nonzero;"/><path d="M26.675,34.93c0,-6.846 -5.634,-12.48 -12.48,-12.48c-6.847,0 -12.48,5.634 -12.48,12.48c0,6.846 5.633,12.48 12.48,12.48c6.844,-0.005 12.474,-5.636 12.48,-12.48Z" style="fill:#4285f4;fill-rule:nonzero;"/><path d="M70.505,13.78c-9.199,4.645 -15.016,14.116 -15,24.42l0,10.2c2.91,-1.146 6.149,-1.146 9.06,0l0,-10.2c0.007,-6.227 3.188,-12.038 8.43,-15.4c-1.647,-2.161 -2.54,-4.803 -2.54,-7.52c-0.03,-0.5 0.05,-1 0.05,-1.5Z" style="fill:#4285f4;fill-rule:nonzero;"/><path d="M101.285,38.2l0,20.21c0,2.485 2.045,4.53 4.53,4.53c2.485,-0 4.53,-2.045 4.53,-4.53l0,-20.21c0.006,-10.302 -5.809,-19.768 -15,-24.42c0,0.5 0.09,1 0.09,1.5c-0.001,2.717 -0.894,5.359 -2.54,7.52c5.226,3.371 8.391,9.181 8.39,15.4Z" style="fill:#4285f4;fill-rule:nonzero;"/><path d="M105.815,72.59l-0.01,0c-6.847,0 -12.48,5.634 -12.48,12.48c0,6.846 5.633,12.48 12.48,12.48c6.846,0 12.48,-5.634 12.48,-12.48c0,-6.843 -5.628,-12.475 -12.47,-12.48Z" style="fill:#4285f4;fill-rule:nonzero;"/></svg>