<svg width="4799" height="342" viewBox="0 0 4799 342" fill="none" xmlns="http://www.w3.org/2000/svg">
<path d="M1867.49 172.029C2001 251.171 2113.77 291.656 2230.16 313.519C2487.54 361.864 2710.4 276.036 2887.13 131.702C3090.1 -34.0739 3278.18 -9.56489 3437.57 41.464C3620.78 100.12 3744.24 203.601 3869.78 252.916C4034.27 317.528 4467.07 474.365 4796.56 84.0452" stroke="#FBBC04" stroke-width="5"/>
<path d="M1.96423 193.173C33.5666 209.21 248.355 292.658 386.197 315.407C649.017 358.781 865.677 276.037 1042.4 131.703C1245.38 -34.0737 1433.46 -9.56453 1592.85 41.4644C1776.06 100.12 1899.52 203.601 2025.06 252.916C2189.55 317.529 2443.68 387.511 2728.65 237.179" stroke="#FBBC04" stroke-width="5"/>
</svg>
