<svg xmlns="http://www.w3.org/2000/svg" x="0" y="0" viewBox="0 0 33 26">
  <style type="text/css">
	.st0{fill:#2D5EAB;}
	.st1{fill:#FFFFFF;}
  </style>
  <path class="st0" d="M13.72,24.97v-8.33h5.55v8.33h6.94v-11.1h4.16L16.5,1.38L2.62,13.87h4.16v11.1H13.72z"/>
  <path class="st1" d="M16.5,1.38l13.88,12.49h-4.16v11.1h-6.94v-8.33h-5.55v8.33H6.78v-11.1H2.62L16.5,1.38 M16.5,0.02l-0.67,0.61
	L1.95,13.12L0,14.87h2.62h3.16v10.1v1.01h1.01h6.94h1.01v-1.01v-7.32h3.54v7.32v1.01h1.01h6.94h1.01v-1.01v-10.1h3.16H33l-1.95-1.75
	L17.17,0.63L16.5,0.02L16.5,0.02z"/>
</svg>
