<?xml version="1.0" encoding="UTF-8" standalone="no"?>
<!DOCTYPE svg PUBLIC "-//W3C//DTD SVG 1.1//EN" "http://www.w3.org/Graphics/SVG/1.1/DTD/svg11.dtd">
<svg width="100%" height="100%" viewBox="0 0 302 4032" version="1.1" xmlns="http://www.w3.org/2000/svg" xmlns:xlink="http://www.w3.org/1999/xlink" xml:space="preserve" xmlns:serif="http://www.serif.com/" style="fill-rule:evenodd;clip-rule:evenodd;stroke-linecap:round;stroke-linejoin:round;stroke-miterlimit:1.5;">
    <g>
        <path d="M300.999,47.5C300.999,73.444 280.09,94.5 254.335,94.5L47.664,94.5C21.909,94.5 1,73.444 1,47.5C1,21.556 21.909,0.5 47.664,0.5L254.335,0.5C280.09,0.5 300.999,21.556 300.999,47.5Z" style="fill:rgb(255,160,0);"/>
        <ellipse cx="47.667" cy="47.587" rx="36.667" ry="36.929" style="fill:white;"/>
        <path d="M26.167,38.91L47.667,56.264L69.167,38.91" style="fill:none;stroke:rgb(255,160,0);stroke-width:13.62px;"/>
    </g>
    <g>
        <path d="M300.999,2063.5C300.999,2089.44 280.09,2110.5 254.335,2110.5L47.664,2110.5C21.909,2110.5 1,2089.44 1,2063.5C1,2037.56 21.909,2016.5 47.664,2016.5L254.335,2016.5C280.09,2016.5 300.999,2037.56 300.999,2063.5Z" style="fill:rgb(255,160,0);"/>
        <ellipse cx="47.667" cy="2063.59" rx="36.667" ry="36.929" style="fill:white;"/>
        <path d="M26.167,2072.26L47.667,2054.91L69.167,2072.26" style="fill:none;stroke:rgb(255,160,0);stroke-width:13.62px;"/>
    </g>
    <g>
        <path d="M300.999,911.999C300.999,937.943 280.09,958.999 254.335,958.999L47.664,958.999C21.909,958.999 1,937.943 1,911.999C1,886.055 21.909,864.999 47.664,864.999L254.335,864.999C280.09,864.999 300.999,886.055 300.999,911.999Z" style="fill:rgb(97,97,97);"/>
        <ellipse cx="47.667" cy="912.086" rx="36.667" ry="36.929" style="fill:white;"/>
        <path d="M26.167,903.409L47.667,920.763L69.167,903.409" style="fill:none;stroke:rgb(97,97,97);stroke-width:13.62px;"/>
    </g>
    <g>
        <path d="M300.999,2928C300.999,2953.94 280.09,2975 254.335,2975L47.664,2975C21.909,2975 1,2953.94 1,2928C1,2902.05 21.909,2881 47.664,2881L254.335,2881C280.09,2881 300.999,2902.05 300.999,2928Z" style="fill:rgb(97,97,97);"/>
        <ellipse cx="47.667" cy="2928.09" rx="36.667" ry="36.929" style="fill:white;"/>
        <path d="M26.167,2936.76L47.667,2919.41L69.167,2936.76" style="fill:none;stroke:rgb(97,97,97);stroke-width:13.62px;"/>
    </g>
    <g>
        <path d="M300.999,815.999C300.999,841.943 280.09,862.999 254.335,862.999L47.664,862.999C21.909,862.999 1,841.943 1,815.999C1,790.055 21.909,768.999 47.664,768.999L254.335,768.999C280.09,768.999 300.999,790.055 300.999,815.999Z" style="fill:rgb(56,142,60);"/>
        <ellipse cx="47.667" cy="816.086" rx="36.667" ry="36.929" style="fill:white;"/>
        <path d="M26.167,807.409L47.667,824.763L69.167,807.409" style="fill:none;stroke:rgb(56,142,60);stroke-width:13.62px;"/>
    </g>
    <g>
        <path d="M300.999,2832C300.999,2857.94 280.09,2879 254.335,2879L47.664,2879C21.909,2879 1,2857.94 1,2832C1,2806.05 21.909,2785 47.664,2785L254.335,2785C280.09,2785 300.999,2806.05 300.999,2832Z" style="fill:rgb(56,142,60);"/>
        <ellipse cx="47.667" cy="2832.09" rx="36.667" ry="36.929" style="fill:white;"/>
        <path d="M26.167,2840.76L47.667,2823.41L69.167,2840.76" style="fill:none;stroke:rgb(56,142,60);stroke-width:13.62px;"/>
    </g>
    <g>
        <path d="M300.999,431.5C300.999,457.444 280.09,478.5 254.335,478.5L47.664,478.5C21.909,478.5 1,457.444 1,431.5C1,405.556 21.909,384.5 47.664,384.5L254.335,384.5C280.09,384.5 300.999,405.556 300.999,431.5Z" style="fill:rgb(93,64,55);"/>
        <ellipse cx="47.667" cy="431.587" rx="36.667" ry="36.929" style="fill:white;"/>
        <path d="M26.167,422.91L47.667,440.264L69.167,422.91" style="fill:none;stroke:rgb(93,64,55);stroke-width:13.62px;"/>
    </g>
    <g>
        <path d="M300.999,2447.5C300.999,2473.44 280.09,2494.5 254.335,2494.5L47.664,2494.5C21.909,2494.5 1,2473.44 1,2447.5C1,2421.56 21.909,2400.5 47.664,2400.5L254.335,2400.5C280.09,2400.5 300.999,2421.56 300.999,2447.5Z" style="fill:rgb(93,64,55);"/>
        <ellipse cx="47.667" cy="2447.59" rx="36.667" ry="36.929" style="fill:white;"/>
        <path d="M26.167,2456.26L47.667,2438.91L69.167,2456.26" style="fill:none;stroke:rgb(93,64,55);stroke-width:13.62px;"/>
    </g>
    <g>
        <path d="M300.999,1296C300.999,1321.94 280.09,1343 254.335,1343L47.664,1343C21.909,1343 1,1321.94 1,1296C1,1270.06 21.909,1249 47.664,1249L254.335,1249C280.09,1249 300.999,1270.06 300.999,1296Z" style="fill:rgb(175,180,43);"/>
        <ellipse cx="47.667" cy="1296.09" rx="36.667" ry="36.929" style="fill:white;"/>
        <path d="M26.167,1287.41L47.667,1304.76L69.167,1287.41" style="fill:none;stroke:rgb(175,180,43);stroke-width:13.62px;"/>
    </g>
    <g>
        <path d="M300.999,3312C300.999,3337.94 280.09,3359 254.335,3359L47.664,3359C21.909,3359 1,3337.94 1,3312C1,3286.06 21.909,3265 47.664,3265L254.335,3265C280.09,3265 300.999,3286.06 300.999,3312Z" style="fill:rgb(175,180,43);"/>
        <ellipse cx="47.667" cy="3312.09" rx="36.667" ry="36.929" style="fill:white;"/>
        <path d="M26.167,3320.76L47.667,3303.41L69.167,3320.76" style="fill:none;stroke:rgb(175,180,43);stroke-width:13.62px;"/>
    </g>
    <g>
        <path d="M300.999,1680C300.999,1705.94 280.09,1727 254.335,1727L47.664,1727C21.909,1727 1,1705.94 1,1680C1,1654.06 21.909,1633 47.664,1633L254.335,1633C280.09,1633 300.999,1654.06 300.999,1680Z" style="fill:rgb(211,47,47);"/>
        <ellipse cx="47.667" cy="1680.09" rx="36.667" ry="36.929" style="fill:white;"/>
        <path d="M26.167,1671.41L47.667,1688.76L69.167,1671.41" style="fill:none;stroke:rgb(211,47,47);stroke-width:13.62px;"/>
    </g>
    <g>
        <path d="M300.999,3696C300.999,3721.94 280.09,3743 254.335,3743L47.664,3743C21.909,3743 1,3721.94 1,3696C1,3670.06 21.909,3649 47.664,3649L254.335,3649C280.09,3649 300.999,3670.06 300.999,3696Z" style="fill:rgb(211,47,47);"/>
        <ellipse cx="47.667" cy="3696.09" rx="36.667" ry="36.929" style="fill:white;"/>
        <path d="M26.167,3704.76L47.667,3687.41L69.167,3704.76" style="fill:none;stroke:rgb(211,47,47);stroke-width:13.62px;"/>
    </g>
    <g>
        <path d="M300.999,239.5C300.999,265.444 280.09,286.5 254.335,286.5L47.664,286.5C21.909,286.5 1,265.444 1,239.5C1,213.556 21.909,192.5 47.664,192.5L254.335,192.5C280.09,192.5 300.999,213.556 300.999,239.5Z" style="fill:rgb(69,90,100);"/>
        <ellipse cx="47.667" cy="239.587" rx="36.667" ry="36.929" style="fill:white;"/>
        <path d="M26.167,230.91L47.667,248.264L69.167,230.91" style="fill:none;stroke:rgb(69,90,100);stroke-width:13.62px;"/>
    </g>
    <g>
        <path d="M300.999,2255.5C300.999,2281.44 280.09,2302.5 254.335,2302.5L47.664,2302.5C21.909,2302.5 1,2281.44 1,2255.5C1,2229.56 21.909,2208.5 47.664,2208.5L254.335,2208.5C280.09,2208.5 300.999,2229.56 300.999,2255.5Z" style="fill:rgb(69,90,100);"/>
        <ellipse cx="47.667" cy="2255.59" rx="36.667" ry="36.929" style="fill:white;"/>
        <path d="M26.167,2264.26L47.667,2246.91L69.167,2264.26" style="fill:none;stroke:rgb(69,90,100);stroke-width:13.62px;"/>
    </g>
    <g>
        <path d="M300.999,1104C300.999,1129.94 280.09,1151 254.335,1151L47.664,1151C21.909,1151 1,1129.94 1,1104C1,1078.06 21.909,1057 47.664,1057L254.335,1057C280.09,1057 300.999,1078.06 300.999,1104Z" style="fill:rgb(2,136,209);"/>
        <ellipse cx="47.667" cy="1104.09" rx="36.667" ry="36.929" style="fill:white;"/>
        <path d="M26.167,1095.41L47.667,1112.76L69.167,1095.41" style="fill:none;stroke:rgb(2,136,209);stroke-width:13.62px;"/>
    </g>
    <g>
        <path d="M300.999,3120C300.999,3145.94 280.09,3167 254.335,3167L47.664,3167C21.909,3167 1,3145.94 1,3120C1,3094.06 21.909,3073 47.664,3073L254.335,3073C280.09,3073 300.999,3094.06 300.999,3120Z" style="fill:rgb(2,136,209);"/>
        <ellipse cx="47.667" cy="3120.09" rx="36.667" ry="36.929" style="fill:white;"/>
        <path d="M26.167,3128.76L47.667,3111.41L69.167,3128.76" style="fill:none;stroke:rgb(2,136,209);stroke-width:13.62px;"/>
    </g>
    <g>
        <path d="M300.999,623.5C300.999,649.444 280.09,670.5 254.335,670.5L47.664,670.5C21.909,670.5 1,649.444 1,623.5C1,597.556 21.909,576.5 47.664,576.5L254.335,576.5C280.09,576.5 300.999,597.556 300.999,623.5Z" style="fill:rgb(230,74,25);"/>
        <ellipse cx="47.667" cy="623.587" rx="36.667" ry="36.929" style="fill:white;"/>
        <path d="M26.167,614.91L47.667,632.264L69.167,614.91" style="fill:none;stroke:rgb(230,74,25);stroke-width:13.62px;"/>
    </g>
    <g>
        <path d="M300.999,2639.5C300.999,2665.44 280.09,2686.5 254.335,2686.5L47.664,2686.5C21.909,2686.5 1,2665.44 1,2639.5C1,2613.56 21.909,2592.5 47.664,2592.5L254.335,2592.5C280.09,2592.5 300.999,2613.56 300.999,2639.5Z" style="fill:rgb(230,74,25);"/>
        <ellipse cx="47.667" cy="2639.59" rx="36.667" ry="36.929" style="fill:white;"/>
        <path d="M26.167,2648.26L47.667,2630.91L69.167,2648.26" style="fill:none;stroke:rgb(230,74,25);stroke-width:13.62px;"/>
    </g>
    <g>
        <path d="M300.999,1488C300.999,1513.94 280.09,1535 254.335,1535L47.664,1535C21.909,1535 1,1513.94 1,1488C1,1462.06 21.909,1441 47.664,1441L254.335,1441C280.09,1441 300.999,1462.06 300.999,1488Z" style="fill:rgb(194,24,91);"/>
        <ellipse cx="47.667" cy="1488.09" rx="36.667" ry="36.929" style="fill:white;"/>
        <path d="M26.167,1479.41L47.667,1496.76L69.167,1479.41" style="fill:none;stroke:rgb(194,24,91);stroke-width:13.62px;"/>
    </g>
    <g>
        <path d="M300.999,3504C300.999,3529.94 280.09,3551 254.335,3551L47.664,3551C21.909,3551 1,3529.94 1,3504C1,3478.06 21.909,3457 47.664,3457L254.335,3457C280.09,3457 300.999,3478.06 300.999,3504Z" style="fill:rgb(194,24,91);"/>
        <ellipse cx="47.667" cy="3504.09" rx="36.667" ry="36.929" style="fill:white;"/>
        <path d="M26.167,3512.76L47.667,3495.41L69.167,3512.76" style="fill:none;stroke:rgb(194,24,91);stroke-width:13.62px;"/>
    </g>
    <g>
        <path d="M300.999,1872C300.999,1897.94 280.09,1919 254.335,1919L47.664,1919C21.909,1919 1,1897.94 1,1872C1,1846.06 21.909,1825 47.664,1825L254.335,1825C280.09,1825 300.999,1846.06 300.999,1872Z" style="fill:rgb(251,192,45);"/>
        <ellipse cx="47.667" cy="1872.09" rx="36.667" ry="36.929" style="fill:white;"/>
        <path d="M26.167,1863.41L47.667,1880.76L69.167,1863.41" style="fill:none;stroke:rgb(251,192,45);stroke-width:13.62px;"/>
    </g>
    <g>
        <path d="M300.999,3888C300.999,3913.94 280.09,3935 254.335,3935L47.664,3935C21.909,3935 1,3913.94 1,3888C1,3862.06 21.909,3841 47.664,3841L254.335,3841C280.09,3841 300.999,3862.06 300.999,3888Z" style="fill:rgb(251,192,45);"/>
        <ellipse cx="47.667" cy="3888.09" rx="36.667" ry="36.929" style="fill:white;"/>
        <path d="M26.167,3896.76L47.667,3879.41L69.167,3896.76" style="fill:none;stroke:rgb(251,192,45);stroke-width:13.62px;"/>
    </g>
    <g opacity="0.5">
        <path d="M300.999,143.5C300.999,169.444 280.09,190.5 254.335,190.5L47.664,190.5C21.909,190.5 1,169.444 1,143.5C1,117.556 21.909,96.5 47.664,96.5L254.335,96.5C280.09,96.5 300.999,117.556 300.999,143.5Z" style="fill:rgb(69,90,100);"/>
        <ellipse cx="47.667" cy="143.587" rx="36.667" ry="36.929" style="fill:white;"/>
        <path d="M26.167,134.91L47.667,152.264L69.167,134.91" style="fill:none;stroke:rgb(69,90,100);stroke-width:13.62px;"/>
    </g>
    <g opacity="0.5">
        <path d="M300.999,2159.5C300.999,2185.44 280.09,2206.5 254.335,2206.5L47.664,2206.5C21.909,2206.5 1,2185.44 1,2159.5C1,2133.56 21.909,2112.5 47.664,2112.5L254.335,2112.5C280.09,2112.5 300.999,2133.56 300.999,2159.5Z" style="fill:rgb(69,90,100);"/>
        <ellipse cx="47.667" cy="2159.59" rx="36.667" ry="36.929" style="fill:white;"/>
        <path d="M26.167,2168.26L47.667,2150.91L69.167,2168.26" style="fill:none;stroke:rgb(69,90,100);stroke-width:13.62px;"/>
    </g>
    <g>
        <path d="M300.999,1008C300.999,1033.94 280.09,1055 254.335,1055L47.664,1055C21.909,1055 1,1033.94 1,1008C1,982.055 21.909,960.999 47.664,960.999L254.335,960.999C280.09,960.999 300.999,982.055 300.999,1008Z" style="fill:rgb(48,63,159);"/>
        <ellipse cx="47.667" cy="1008.09" rx="36.667" ry="36.929" style="fill:white;"/>
        <path d="M26.167,999.409L47.667,1016.76L69.167,999.409" style="fill:none;stroke:rgb(48,63,159);stroke-width:13.62px;"/>
    </g>
    <g>
        <path d="M300.999,3024C300.999,3049.94 280.09,3071 254.335,3071L47.664,3071C21.909,3071 1,3049.94 1,3024C1,2998.05 21.909,2977 47.664,2977L254.335,2977C280.09,2977 300.999,2998.05 300.999,3024Z" style="fill:rgb(48,63,159);"/>
        <ellipse cx="47.667" cy="3024.09" rx="36.667" ry="36.929" style="fill:white;"/>
        <path d="M26.167,3032.76L47.667,3015.41L69.167,3032.76" style="fill:none;stroke:rgb(48,63,159);stroke-width:13.62px;"/>
    </g>
    <g>
        <path d="M300.999,527.5C300.999,553.444 280.09,574.5 254.335,574.5L47.664,574.5C21.909,574.5 1,553.444 1,527.5C1,501.556 21.909,480.5 47.664,480.5L254.335,480.5C280.09,480.5 300.999,501.556 300.999,527.5Z" style="fill:rgb(0,151,167);"/>
        <ellipse cx="47.667" cy="527.587" rx="36.667" ry="36.929" style="fill:white;"/>
        <path d="M26.167,518.91L47.667,536.264L69.167,518.91" style="fill:none;stroke:rgb(0,151,167);stroke-width:13.62px;"/>
    </g>
    <g>
        <path d="M300.999,2543.5C300.999,2569.44 280.09,2590.5 254.335,2590.5L47.664,2590.5C21.909,2590.5 1,2569.44 1,2543.5C1,2517.56 21.909,2496.5 47.664,2496.5L254.335,2496.5C280.09,2496.5 300.999,2517.56 300.999,2543.5Z" style="fill:rgb(0,151,167);"/>
        <ellipse cx="47.667" cy="2543.59" rx="36.667" ry="36.929" style="fill:white;"/>
        <path d="M26.167,2552.26L47.667,2534.91L69.167,2552.26" style="fill:none;stroke:rgb(0,151,167);stroke-width:13.62px;"/>
    </g>
    <g>
        <path d="M300.999,1392C300.999,1417.94 280.09,1439 254.335,1439L47.664,1439C21.909,1439 1,1417.94 1,1392C1,1366.06 21.909,1345 47.664,1345L254.335,1345C280.09,1345 300.999,1366.06 300.999,1392Z" style="fill:rgb(245,124,0);"/>
        <ellipse cx="47.667" cy="1392.09" rx="36.667" ry="36.929" style="fill:white;"/>
        <path d="M26.167,1383.41L47.667,1400.76L69.167,1383.41" style="fill:none;stroke:rgb(245,124,0);stroke-width:13.62px;"/>
    </g>
    <g>
        <path d="M300.999,3408C300.999,3433.94 280.09,3455 254.335,3455L47.664,3455C21.909,3455 1,3433.94 1,3408C1,3382.06 21.909,3361 47.664,3361L254.335,3361C280.09,3361 300.999,3382.06 300.999,3408Z" style="fill:rgb(245,124,0);"/>
        <ellipse cx="47.667" cy="3408.09" rx="36.667" ry="36.929" style="fill:white;"/>
        <path d="M26.167,3416.76L47.667,3399.41L69.167,3416.76" style="fill:none;stroke:rgb(245,124,0);stroke-width:13.62px;"/>
    </g>
    <g>
        <path d="M300.999,1776C300.999,1801.94 280.09,1823 254.335,1823L47.664,1823C21.909,1823 1,1801.94 1,1776C1,1750.06 21.909,1729 47.664,1729L254.335,1729C280.09,1729 300.999,1750.06 300.999,1776Z" style="fill:rgb(0,121,107);"/>
        <ellipse cx="47.667" cy="1776.09" rx="36.667" ry="36.929" style="fill:white;"/>
        <path d="M26.167,1767.41L47.667,1784.76L69.167,1767.41" style="fill:none;stroke:rgb(0,121,107);stroke-width:13.62px;"/>
    </g>
    <g>
        <path d="M300.999,3792C300.999,3817.94 280.09,3839 254.335,3839L47.664,3839C21.909,3839 1,3817.94 1,3792C1,3766.06 21.909,3745 47.664,3745L254.335,3745C280.09,3745 300.999,3766.06 300.999,3792Z" style="fill:rgb(0,121,107);"/>
        <ellipse cx="47.667" cy="3792.09" rx="36.667" ry="36.929" style="fill:white;"/>
        <path d="M26.167,3800.76L47.667,3783.41L69.167,3800.76" style="fill:none;stroke:rgb(0,121,107);stroke-width:13.62px;"/>
    </g>
    <g>
        <path d="M300.999,335.5C300.999,361.444 280.09,382.5 254.335,382.5L47.664,382.5C21.909,382.5 1,361.444 1,335.5C1,309.556 21.909,288.5 47.664,288.5L254.335,288.5C280.09,288.5 300.999,309.556 300.999,335.5Z" style="fill:rgb(25,118,210);"/>
        <ellipse cx="47.667" cy="335.587" rx="36.667" ry="36.929" style="fill:white;"/>
        <path d="M26.167,326.91L47.667,344.264L69.167,326.91" style="fill:none;stroke:rgb(25,118,210);stroke-width:13.62px;"/>
    </g>
    <g>
        <path d="M300.999,2351.5C300.999,2377.44 280.09,2398.5 254.335,2398.5L47.664,2398.5C21.909,2398.5 1,2377.44 1,2351.5C1,2325.56 21.909,2304.5 47.664,2304.5L254.335,2304.5C280.09,2304.5 300.999,2325.56 300.999,2351.5Z" style="fill:rgb(25,118,210);"/>
        <ellipse cx="47.667" cy="2351.59" rx="36.667" ry="36.929" style="fill:white;"/>
        <path d="M26.167,2360.26L47.667,2342.91L69.167,2360.26" style="fill:none;stroke:rgb(25,118,210);stroke-width:13.62px;"/>
    </g>
    <g>
        <path d="M300.999,1200C300.999,1225.94 280.09,1247 254.335,1247L47.664,1247C21.909,1247 1,1225.94 1,1200C1,1174.06 21.909,1153 47.664,1153L254.335,1153C280.09,1153 300.999,1174.06 300.999,1200Z" style="fill:rgb(104,159,56);"/>
        <ellipse cx="47.667" cy="1200.09" rx="36.667" ry="36.929" style="fill:white;"/>
        <path d="M26.167,1191.41L47.667,1208.76L69.167,1191.41" style="fill:none;stroke:rgb(104,159,56);stroke-width:13.62px;"/>
    </g>
    <g>
        <path d="M300.999,3216C300.999,3241.94 280.09,3263 254.335,3263L47.664,3263C21.909,3263 1,3241.94 1,3216C1,3190.06 21.909,3169 47.664,3169L254.335,3169C280.09,3169 300.999,3190.06 300.999,3216Z" style="fill:rgb(104,159,56);"/>
        <ellipse cx="47.667" cy="3216.09" rx="36.667" ry="36.929" style="fill:white;"/>
        <path d="M26.167,3224.76L47.667,3207.41L69.167,3224.76" style="fill:none;stroke:rgb(104,159,56);stroke-width:13.62px;"/>
    </g>
    <g>
        <path d="M300.999,719.501C300.999,745.445 280.09,766.501 254.335,766.501L47.664,766.501C21.909,766.501 1,745.445 1,719.501C1,693.556 21.909,672.5 47.664,672.5L254.335,672.5C280.09,672.5 300.999,693.556 300.999,719.501Z" style="fill:rgb(81,45,168);"/>
        <ellipse cx="47.667" cy="719.587" rx="36.667" ry="36.929" style="fill:white;"/>
        <path d="M26.167,710.91L47.667,728.264L69.167,710.91" style="fill:none;stroke:rgb(81,45,168);stroke-width:13.62px;"/>
    </g>
    <g>
        <path d="M300.999,2735.5C300.999,2761.45 280.09,2782.5 254.335,2782.5L47.664,2782.5C21.909,2782.5 1,2761.45 1,2735.5C1,2709.56 21.909,2688.5 47.664,2688.5L254.335,2688.5C280.09,2688.5 300.999,2709.56 300.999,2735.5Z" style="fill:rgb(81,45,168);"/>
        <ellipse cx="47.667" cy="2735.59" rx="36.667" ry="36.929" style="fill:white;"/>
        <path d="M26.167,2744.26L47.667,2726.91L69.167,2744.26" style="fill:none;stroke:rgb(81,45,168);stroke-width:13.62px;"/>
    </g>
    <g>
        <path d="M300.999,1584C300.999,1609.94 280.09,1631 254.335,1631L47.664,1631C21.909,1631 1,1609.94 1,1584C1,1558.06 21.909,1537 47.664,1537L254.335,1537C280.09,1537 300.999,1558.06 300.999,1584Z" style="fill:rgb(123,31,162);"/>
        <ellipse cx="47.667" cy="1584.09" rx="36.667" ry="36.929" style="fill:white;"/>
        <path d="M26.167,1575.41L47.667,1592.76L69.167,1575.41" style="fill:none;stroke:rgb(123,31,162);stroke-width:13.62px;"/>
    </g>
    <g>
        <path d="M300.999,3600C300.999,3625.94 280.09,3647 254.335,3647L47.664,3647C21.909,3647 1,3625.94 1,3600C1,3574.06 21.909,3553 47.664,3553L254.335,3553C280.09,3553 300.999,3574.06 300.999,3600Z" style="fill:rgb(123,31,162);"/>
        <ellipse cx="47.667" cy="3600.09" rx="36.667" ry="36.929" style="fill:white;"/>
        <path d="M26.167,3608.76L47.667,3591.41L69.167,3608.76" style="fill:none;stroke:rgb(123,31,162);stroke-width:13.62px;"/>
    </g>
    <g>
        <path d="M300.999,1968C300.999,1993.94 280.09,2015 254.335,2015L47.664,2015C21.909,2015 1,1993.94 1,1968C1,1942.06 21.909,1921 47.664,1921L254.335,1921C280.09,1921 300.999,1942.06 300.999,1968Z" style="fill:rgb(85,85,85);"/>
        <ellipse cx="47.667" cy="1968.09" rx="36.667" ry="36.929" style="fill:white;"/>
        <path d="M26.167,1959.41L47.667,1976.76L69.167,1959.41" style="fill:none;stroke:rgb(85,85,85);stroke-width:13.62px;"/>
    </g>
    <g>
        <path d="M300.999,3984C300.999,4009.94 280.09,4031 254.335,4031L47.664,4031C21.909,4031 1,4009.94 1,3984C1,3958.06 21.909,3937 47.664,3937L254.335,3937C280.09,3937 300.999,3958.06 300.999,3984Z" style="fill:rgb(85,85,85);"/>
        <ellipse cx="47.667" cy="3984.09" rx="36.667" ry="36.929" style="fill:white;"/>
        <path d="M26.167,3992.76L47.667,3975.41L69.167,3992.76" style="fill:none;stroke:rgb(85,85,85);stroke-width:13.62px;"/>
    </g>
    <g id="Layer1">
    </g>
</svg>
