<?xml version="1.0" encoding="UTF-8" standalone="no"?>
<!DOCTYPE svg PUBLIC "-//W3C//DTD SVG 1.1//EN" "http://www.w3.org/Graphics/SVG/1.1/DTD/svg11.dtd">
<svg width="100%" height="100%" viewBox="0 0 64 1848" version="1.1" xmlns="http://www.w3.org/2000/svg" xmlns:xlink="http://www.w3.org/1999/xlink" xml:space="preserve" xmlns:serif="http://www.serif.com/" style="fill-rule:evenodd;clip-rule:evenodd;stroke-linecap:round;stroke-linejoin:round;stroke-miterlimit:1.5;">
    <g transform="matrix(1,0,0,1,-64,0)">
        <g transform="matrix(0.973684,0,0,0.973684,3.5,-12.0789)">
            <circle cx="95" cy="35" r="19" style="fill:white;stroke:rgb(255,160,0);stroke-width:4.11px;"/>
        </g>
        <g transform="matrix(0.431818,0,0,-0.330214,53.25,39.9873)">
            <path d="M77,66L99,42.943L121,66" style="fill:white;stroke:rgb(255,160,0);stroke-width:15.61px;"/>
        </g>
    </g>
    <g transform="matrix(1,0,0,1,-64,44)">
        <g opacity="0.5">
            <g transform="matrix(0.973684,0,0,0.973684,3.5,-12.0789)">
                <circle cx="95" cy="35" r="19" style="fill:white;stroke:rgb(69,90,100);stroke-width:4.11px;"/>
            </g>
            <g transform="matrix(0.431818,0,0,-0.330214,53.25,39.9873)">
                <path d="M77,66L99,42.943L121,66" style="fill:white;stroke:rgb(69,90,100);stroke-width:15.61px;"/>
            </g>
        </g>
    </g>
    <g transform="matrix(1,0,0,1,-64,88)">
        <g transform="matrix(0.973684,0,0,0.973684,3.5,-12.0789)">
            <circle cx="95" cy="35" r="19" style="fill:white;stroke:rgb(69,90,100);stroke-width:4.11px;"/>
        </g>
        <g transform="matrix(0.431818,0,0,-0.330214,53.25,39.9873)">
            <path d="M77,66L99,42.943L121,66" style="fill:white;stroke:rgb(69,90,100);stroke-width:15.61px;"/>
        </g>
    </g>
    <g transform="matrix(1,0,0,1,-64,132)">
        <g transform="matrix(0.973684,0,0,0.973684,3.5,-12.0789)">
            <circle cx="95" cy="35" r="19" style="fill:white;stroke:rgb(25,118,210);stroke-width:4.11px;"/>
        </g>
        <g transform="matrix(0.431818,0,0,-0.330214,53.25,39.9873)">
            <path d="M77,66L99,42.943L121,66" style="fill:white;stroke:rgb(25,118,210);stroke-width:15.61px;"/>
        </g>
    </g>
    <g transform="matrix(1,0,0,1,-64,176)">
        <g transform="matrix(0.973684,0,0,0.973684,3.5,-12.0789)">
            <circle cx="95" cy="35" r="19" style="fill:white;stroke:rgb(93,64,55);stroke-width:4.11px;"/>
        </g>
        <g transform="matrix(0.431818,0,0,-0.330214,53.25,39.9873)">
            <path d="M77,66L99,42.943L121,66" style="fill:white;stroke:rgb(93,64,55);stroke-width:15.61px;"/>
        </g>
    </g>
    <g transform="matrix(1,0,0,1,-64,220)">
        <g transform="matrix(0.973684,0,0,0.973684,3.5,-12.0789)">
            <circle cx="95" cy="35" r="19" style="fill:white;stroke:rgb(0,151,167);stroke-width:4.11px;"/>
        </g>
        <g transform="matrix(0.431818,0,0,-0.330214,53.25,39.9873)">
            <path d="M77,66L99,42.943L121,66" style="fill:white;stroke:rgb(0,151,167);stroke-width:15.61px;"/>
        </g>
    </g>
    <g transform="matrix(1,0,0,1,-64,264)">
        <g transform="matrix(0.973684,0,0,0.973684,3.5,-12.0789)">
            <circle cx="95" cy="35" r="19" style="fill:white;stroke:rgb(230,74,25);stroke-width:4.11px;"/>
        </g>
        <g transform="matrix(0.431818,0,0,-0.330214,53.25,39.9873)">
            <path d="M77,66L99,42.943L121,66" style="fill:white;stroke:rgb(230,74,25);stroke-width:15.61px;"/>
        </g>
    </g>
    <g transform="matrix(1,0,0,1,-64,308)">
        <g transform="matrix(0.973684,0,0,0.973684,3.5,-12.0789)">
            <circle cx="95" cy="35" r="19" style="fill:white;stroke:rgb(81,45,168);stroke-width:4.11px;"/>
        </g>
        <g transform="matrix(0.431818,0,0,-0.330214,53.25,39.9873)">
            <path d="M77,66L99,42.943L121,66" style="fill:white;stroke:rgb(81,45,168);stroke-width:15.61px;"/>
        </g>
    </g>
    <g transform="matrix(1,0,0,1,-64,352)">
        <g transform="matrix(0.973684,0,0,0.973684,3.5,-12.0789)">
            <circle cx="95" cy="35" r="19" style="fill:white;stroke:rgb(56,142,60);stroke-width:4.11px;"/>
        </g>
        <g transform="matrix(0.431818,0,0,-0.330214,53.25,39.9873)">
            <path d="M77,66L99,42.943L121,66" style="fill:white;stroke:rgb(56,142,60);stroke-width:15.61px;"/>
        </g>
    </g>
    <g transform="matrix(1,0,0,1,-64,396)">
        <g transform="matrix(0.973684,0,0,0.973684,3.5,-12.0789)">
            <circle cx="95" cy="35" r="19" style="fill:white;stroke:rgb(97,97,97);stroke-width:4.11px;"/>
        </g>
        <g transform="matrix(0.431818,0,0,-0.330214,53.25,39.9873)">
            <path d="M77,66L99,42.943L121,66" style="fill:white;stroke:rgb(97,97,97);stroke-width:15.61px;"/>
        </g>
    </g>
    <g transform="matrix(1,0,0,1,-64,440)">
        <g transform="matrix(0.973684,0,0,0.973684,3.5,-12.0789)">
            <circle cx="95" cy="35" r="19" style="fill:white;stroke:rgb(48,63,159);stroke-width:4.11px;"/>
        </g>
        <g transform="matrix(0.431818,0,0,-0.330214,53.25,39.9873)">
            <path d="M77,66L99,42.943L121,66" style="fill:white;stroke:rgb(48,63,159);stroke-width:15.61px;"/>
        </g>
    </g>
    <g transform="matrix(1,0,0,1,-64,484)">
        <g transform="matrix(0.973684,0,0,0.973684,3.5,-12.0789)">
            <circle cx="95" cy="35" r="19" style="fill:white;stroke:rgb(2,136,209);stroke-width:4.11px;"/>
        </g>
        <g transform="matrix(0.431818,0,0,-0.330214,53.25,39.9873)">
            <path d="M77,66L99,42.943L121,66" style="fill:white;stroke:rgb(2,136,209);stroke-width:15.61px;"/>
        </g>
    </g>
    <g transform="matrix(1,0,0,1,-64,528)">
        <g transform="matrix(0.973684,0,0,0.973684,3.5,-12.0789)">
            <circle cx="95" cy="35" r="19" style="fill:white;stroke:rgb(104,159,56);stroke-width:4.11px;"/>
        </g>
        <g transform="matrix(0.431818,0,0,-0.330214,53.25,39.9873)">
            <path d="M77,66L99,42.943L121,66" style="fill:white;stroke:rgb(104,159,56);stroke-width:15.61px;"/>
        </g>
    </g>
    <g transform="matrix(1,0,0,1,-64,572)">
        <g transform="matrix(0.973684,0,0,0.973684,3.5,-12.0789)">
            <circle cx="95" cy="35" r="19" style="fill:white;stroke:rgb(175,180,43);stroke-width:4.11px;"/>
        </g>
        <g transform="matrix(0.431818,0,0,-0.330214,53.25,39.9873)">
            <path d="M77,66L99,42.943L121,66" style="fill:white;stroke:rgb(175,180,43);stroke-width:15.61px;"/>
        </g>
    </g>
    <g transform="matrix(1,0,0,1,-64,616)">
        <g transform="matrix(0.973684,0,0,0.973684,3.5,-12.0789)">
            <circle cx="95" cy="35" r="19" style="fill:white;stroke:rgb(245,124,0);stroke-width:4.11px;"/>
        </g>
        <g transform="matrix(0.431818,0,0,-0.330214,53.25,39.9873)">
            <path d="M77,66L99,42.943L121,66" style="fill:white;stroke:rgb(245,124,0);stroke-width:15.61px;"/>
        </g>
    </g>
    <g transform="matrix(1,0,0,1,-64,660)">
        <g transform="matrix(0.973684,0,0,0.973684,3.5,-12.0789)">
            <circle cx="95" cy="35" r="19" style="fill:white;stroke:rgb(194,24,91);stroke-width:4.11px;"/>
        </g>
        <g transform="matrix(0.431818,0,0,-0.330214,53.25,39.9873)">
            <path d="M77,66L99,42.943L121,66" style="fill:white;stroke:rgb(194,24,91);stroke-width:15.61px;"/>
        </g>
    </g>
    <g transform="matrix(1,0,0,1,-64,704)">
        <g transform="matrix(0.973684,0,0,0.973684,3.5,-12.0789)">
            <circle cx="95" cy="35" r="19" style="fill:white;stroke:rgb(123,31,162);stroke-width:4.11px;"/>
        </g>
        <g transform="matrix(0.431818,0,0,-0.330214,53.25,39.9873)">
            <path d="M77,66L99,42.943L121,66" style="fill:white;stroke:rgb(123,31,162);stroke-width:15.61px;"/>
        </g>
    </g>
    <g transform="matrix(1,0,0,1,-64,748)">
        <g transform="matrix(0.973684,0,0,0.973684,3.5,-12.0789)">
            <circle cx="95" cy="35" r="19" style="fill:white;stroke:rgb(211,47,47);stroke-width:4.11px;"/>
        </g>
        <g transform="matrix(0.431818,0,0,-0.330214,53.25,39.9873)">
            <path d="M77,66L99,42.943L121,66" style="fill:white;stroke:rgb(211,47,47);stroke-width:15.61px;"/>
        </g>
    </g>
    <g transform="matrix(1,0,0,1,-64,792)">
        <g transform="matrix(0.973684,0,0,0.973684,3.5,-12.0789)">
            <circle cx="95" cy="35" r="19" style="fill:white;stroke:rgb(0,121,107);stroke-width:4.11px;"/>
        </g>
        <g transform="matrix(0.431818,0,0,-0.330214,53.25,39.9873)">
            <path d="M77,66L99,42.943L121,66" style="fill:white;stroke:rgb(0,121,107);stroke-width:15.61px;"/>
        </g>
    </g>
    <g transform="matrix(1,0,0,1,-64,836)">
        <g transform="matrix(0.973684,0,0,0.973684,3.5,-12.0789)">
            <circle cx="95" cy="35" r="19" style="fill:white;stroke:rgb(251,192,45);stroke-width:4.11px;"/>
        </g>
        <g transform="matrix(0.431818,0,0,-0.330214,53.25,39.9873)">
            <path d="M77,66L99,42.943L121,66" style="fill:white;stroke:rgb(251,192,45);stroke-width:15.61px;"/>
        </g>
    </g>
    <g transform="matrix(1,0,0,1,-64,880)">
        <g transform="matrix(0.973684,0,0,0.973684,3.5,-12.0789)">
            <circle cx="95" cy="35" r="19" style="fill:white;stroke:rgb(85,85,85);stroke-width:4.11px;"/>
        </g>
        <g transform="matrix(0.431818,0,0,-0.330214,53.25,39.9873)">
            <path d="M77,66L99,42.943L121,66" style="fill:white;stroke:rgb(85,85,85);stroke-width:15.61px;"/>
        </g>
    </g>
    <g transform="matrix(1,0,0,-1,-64,968)">
        <g transform="matrix(0.973684,0,0,0.973684,3.5,-12.0789)">
            <circle cx="95" cy="35" r="19" style="fill:white;stroke:rgb(255,160,0);stroke-width:4.11px;"/>
        </g>
        <g transform="matrix(0.431818,0,0,-0.330214,53.25,39.9873)">
            <path d="M77,66L99,42.943L121,66" style="fill:white;stroke:rgb(255,160,0);stroke-width:15.61px;"/>
        </g>
    </g>
    <g transform="matrix(1,0,0,-1,-64,1012)">
        <g opacity="0.5">
            <g transform="matrix(0.973684,0,0,0.973684,3.5,-12.0789)">
                <circle cx="95" cy="35" r="19" style="fill:white;stroke:rgb(69,90,100);stroke-width:4.11px;"/>
            </g>
            <g transform="matrix(0.431818,0,0,-0.330214,53.25,39.9873)">
                <path d="M77,66L99,42.943L121,66" style="fill:white;stroke:rgb(69,90,100);stroke-width:15.61px;"/>
            </g>
        </g>
    </g>
    <g transform="matrix(1,0,0,-1,-64,1056)">
        <g transform="matrix(0.973684,0,0,0.973684,3.5,-12.0789)">
            <circle cx="95" cy="35" r="19" style="fill:white;stroke:rgb(69,90,100);stroke-width:4.11px;"/>
        </g>
        <g transform="matrix(0.431818,0,0,-0.330214,53.25,39.9873)">
            <path d="M77,66L99,42.943L121,66" style="fill:white;stroke:rgb(69,90,100);stroke-width:15.61px;"/>
        </g>
    </g>
    <g transform="matrix(1,0,0,-1,-64,1100)">
        <g transform="matrix(0.973684,0,0,0.973684,3.5,-12.0789)">
            <circle cx="95" cy="35" r="19" style="fill:white;stroke:rgb(25,118,210);stroke-width:4.11px;"/>
        </g>
        <g transform="matrix(0.431818,0,0,-0.330214,53.25,39.9873)">
            <path d="M77,66L99,42.943L121,66" style="fill:white;stroke:rgb(25,118,210);stroke-width:15.61px;"/>
        </g>
    </g>
    <g transform="matrix(1,0,0,-1,-64,1144)">
        <g transform="matrix(0.973684,0,0,0.973684,3.5,-12.0789)">
            <circle cx="95" cy="35" r="19" style="fill:white;stroke:rgb(93,64,55);stroke-width:4.11px;"/>
        </g>
        <g transform="matrix(0.431818,0,0,-0.330214,53.25,39.9873)">
            <path d="M77,66L99,42.943L121,66" style="fill:white;stroke:rgb(93,64,55);stroke-width:15.61px;"/>
        </g>
    </g>
    <g transform="matrix(1,0,0,-1,-64,1188)">
        <g transform="matrix(0.973684,0,0,0.973684,3.5,-12.0789)">
            <circle cx="95" cy="35" r="19" style="fill:white;stroke:rgb(0,151,167);stroke-width:4.11px;"/>
        </g>
        <g transform="matrix(0.431818,0,0,-0.330214,53.25,39.9873)">
            <path d="M77,66L99,42.943L121,66" style="fill:white;stroke:rgb(0,151,167);stroke-width:15.61px;"/>
        </g>
    </g>
    <g transform="matrix(1,0,0,-1,-64,1232)">
        <g transform="matrix(0.973684,0,0,0.973684,3.5,-12.0789)">
            <circle cx="95" cy="35" r="19" style="fill:white;stroke:rgb(230,74,25);stroke-width:4.11px;"/>
        </g>
        <g transform="matrix(0.431818,0,0,-0.330214,53.25,39.9873)">
            <path d="M77,66L99,42.943L121,66" style="fill:white;stroke:rgb(230,74,25);stroke-width:15.61px;"/>
        </g>
    </g>
    <g transform="matrix(1,0,0,-1,-64,1276)">
        <g transform="matrix(0.973684,0,0,0.973684,3.5,-12.0789)">
            <circle cx="95" cy="35" r="19" style="fill:white;stroke:rgb(81,45,168);stroke-width:4.11px;"/>
        </g>
        <g transform="matrix(0.431818,0,0,-0.330214,53.25,39.9873)">
            <path d="M77,66L99,42.943L121,66" style="fill:white;stroke:rgb(81,45,168);stroke-width:15.61px;"/>
        </g>
    </g>
    <g transform="matrix(1,0,0,-1,-64,1320)">
        <g transform="matrix(0.973684,0,0,0.973684,3.5,-12.0789)">
            <circle cx="95" cy="35" r="19" style="fill:white;stroke:rgb(56,142,60);stroke-width:4.11px;"/>
        </g>
        <g transform="matrix(0.431818,0,0,-0.330214,53.25,39.9873)">
            <path d="M77,66L99,42.943L121,66" style="fill:white;stroke:rgb(56,142,60);stroke-width:15.61px;"/>
        </g>
    </g>
    <g transform="matrix(1,0,0,-1,-64,1364)">
        <g transform="matrix(0.973684,0,0,0.973684,3.5,-12.0789)">
            <circle cx="95" cy="35" r="19" style="fill:white;stroke:rgb(97,97,97);stroke-width:4.11px;"/>
        </g>
        <g transform="matrix(0.431818,0,0,-0.330214,53.25,39.9873)">
            <path d="M77,66L99,42.943L121,66" style="fill:white;stroke:rgb(97,97,97);stroke-width:15.61px;"/>
        </g>
    </g>
    <g transform="matrix(1,0,0,-1,-64,1408)">
        <g transform="matrix(0.973684,0,0,0.973684,3.5,-12.0789)">
            <circle cx="95" cy="35" r="19" style="fill:white;stroke:rgb(48,63,159);stroke-width:4.11px;"/>
        </g>
        <g transform="matrix(0.431818,0,0,-0.330214,53.25,39.9873)">
            <path d="M77,66L99,42.943L121,66" style="fill:white;stroke:rgb(48,63,159);stroke-width:15.61px;"/>
        </g>
    </g>
    <g transform="matrix(1,0,0,-1,-64,1452)">
        <g transform="matrix(0.973684,0,0,0.973684,3.5,-12.0789)">
            <circle cx="95" cy="35" r="19" style="fill:white;stroke:rgb(2,136,209);stroke-width:4.11px;"/>
        </g>
        <g transform="matrix(0.431818,0,0,-0.330214,53.25,39.9873)">
            <path d="M77,66L99,42.943L121,66" style="fill:white;stroke:rgb(2,136,209);stroke-width:15.61px;"/>
        </g>
    </g>
    <g transform="matrix(1,0,0,-1,-64,1496)">
        <g transform="matrix(0.973684,0,0,0.973684,3.5,-12.0789)">
            <circle cx="95" cy="35" r="19" style="fill:white;stroke:rgb(104,158,56);stroke-width:4.11px;"/>
        </g>
        <g transform="matrix(0.431818,0,0,-0.330214,53.25,39.9873)">
            <path d="M77,66L99,42.943L121,66" style="fill:white;stroke:rgb(104,158,56);stroke-width:15.61px;"/>
        </g>
    </g>
    <g transform="matrix(1,0,0,-1,-64,1540)">
        <g transform="matrix(0.973684,0,0,0.973684,3.5,-12.0789)">
            <circle cx="95" cy="35" r="19" style="fill:white;stroke:rgb(175,180,43);stroke-width:4.11px;"/>
        </g>
        <g transform="matrix(0.431818,0,0,-0.330214,53.25,39.9873)">
            <path d="M77,66L99,42.943L121,66" style="fill:white;stroke:rgb(175,180,43);stroke-width:15.61px;"/>
        </g>
    </g>
    <g transform="matrix(1,0,0,-1,-64,1584)">
        <g transform="matrix(0.973684,0,0,0.973684,3.5,-12.0789)">
            <circle cx="95" cy="35" r="19" style="fill:white;stroke:rgb(245,124,0);stroke-width:4.11px;"/>
        </g>
        <g transform="matrix(0.431818,0,0,-0.330214,53.25,39.9873)">
            <path d="M77,66L99,42.943L121,66" style="fill:white;stroke:rgb(245,124,0);stroke-width:15.61px;"/>
        </g>
    </g>
    <g transform="matrix(1,0,0,-1,-64,1628)">
        <g transform="matrix(0.973684,0,0,0.973684,3.5,-12.0789)">
            <circle cx="95" cy="35" r="19" style="fill:white;stroke:rgb(194,24,91);stroke-width:4.11px;"/>
        </g>
        <g transform="matrix(0.431818,0,0,-0.330214,53.25,39.9873)">
            <path d="M77,66L99,42.943L121,66" style="fill:white;stroke:rgb(194,24,91);stroke-width:15.61px;"/>
        </g>
    </g>
    <g transform="matrix(1,0,0,-1,-64,1672)">
        <g transform="matrix(0.973684,0,0,0.973684,3.5,-12.0789)">
            <circle cx="95" cy="35" r="19" style="fill:white;stroke:rgb(123,31,162);stroke-width:4.11px;"/>
        </g>
        <g transform="matrix(0.431818,0,0,-0.330214,53.25,39.9873)">
            <path d="M77,66L99,42.943L121,66" style="fill:white;stroke:rgb(123,31,162);stroke-width:15.61px;"/>
        </g>
    </g>
    <g transform="matrix(1,0,0,-1,-64,1716)">
        <g transform="matrix(0.973684,0,0,0.973684,3.5,-12.0789)">
            <circle cx="95" cy="35" r="19" style="fill:white;stroke:rgb(211,47,47);stroke-width:4.11px;"/>
        </g>
        <g transform="matrix(0.431818,0,0,-0.330214,53.25,39.9873)">
            <path d="M77,66L99,42.943L121,66" style="fill:white;stroke:rgb(211,47,47);stroke-width:15.61px;"/>
        </g>
    </g>
    <g transform="matrix(1,0,0,-1,-64,1760)">
        <g transform="matrix(0.973684,0,0,0.973684,3.5,-12.0789)">
            <circle cx="95" cy="35" r="19" style="fill:white;stroke:rgb(0,121,107);stroke-width:4.11px;"/>
        </g>
        <g transform="matrix(0.431818,0,0,-0.330214,53.25,39.9873)">
            <path d="M77,66L99,42.943L121,66" style="fill:white;stroke:rgb(0,121,107);stroke-width:15.61px;"/>
        </g>
    </g>
    <g transform="matrix(1,0,0,-1,-64,1804)">
        <g transform="matrix(0.973684,0,0,0.973684,3.5,-12.0789)">
            <circle cx="95" cy="35" r="19" style="fill:white;stroke:rgb(251,192,45);stroke-width:4.11px;"/>
        </g>
        <g transform="matrix(0.431818,0,0,-0.330214,53.25,39.9873)">
            <path d="M77,66L99,42.943L121,66" style="fill:white;stroke:rgb(251,192,45);stroke-width:15.61px;"/>
        </g>
    </g>
    <g transform="matrix(1,0,0,-1,-64,1848)">
        <g transform="matrix(0.973684,0,0,0.973684,3.5,-12.0789)">
            <circle cx="95" cy="35" r="19" style="fill:white;stroke:rgb(85,85,85);stroke-width:4.11px;"/>
        </g>
        <g transform="matrix(0.431818,0,0,-0.330214,53.25,39.9873)">
            <path d="M77,66L99,42.943L121,66" style="fill:white;stroke:rgb(85,85,85);stroke-width:15.61px;"/>
        </g>
    </g>
</svg>
