<svg width="24" height="25" viewBox="0 0 24 25" fill="none" xmlns="http://www.w3.org/2000/svg">
    <path d="M15.0469 12.1193C15.6719 11.4943 15.9844 10.7443 15.9844 9.86926C15.9844 8.77551 15.5938 7.83801 14.8125 7.05676C14.0312 6.27551 13.0938 5.88489 12 5.88489C10.9062 5.88489 9.96875 6.27551 9.1875 7.05676C8.40625 7.83801 8.01562 8.77551 8.01562 9.86926H9.98438C9.98438 9.33801 10.1875 8.86926 10.5938 8.46301C11 8.05676 11.4688 7.85364 12 7.85364C12.5312 7.85364 13 8.05676 13.4062 8.46301C13.8125 8.86926 14.0156 9.33801 14.0156 9.86926C14.0156 10.4005 13.8125 10.8693 13.4062 11.2755L12.1875 12.5411C11.4062 13.3849 11.0156 14.3224 11.0156 15.3536V15.8693H12.9844C12.9844 14.838 13.375 13.9005 14.1562 13.0568L15.0469 12.1193ZM12.9844 19.8536V17.8849H11.0156V19.8536H12.9844ZM4.92188 5.83801C6.89062 3.86926 9.25 2.88489 12 2.88489C14.75 2.88489 17.0938 3.86926 19.0312 5.83801C21 7.77551 21.9844 10.1193 21.9844 12.8693C21.9844 15.6193 21 17.9786 19.0312 19.9474C17.0938 21.8849 14.75 22.8536 12 22.8536C9.25 22.8536 6.89062 21.8849 4.92188 19.9474C2.98438 17.9786 2.01562 15.6193 2.01562 12.8693C2.01562 10.1193 2.98438 7.77551 4.92188 5.83801Z" fill="#2196F3"/>
</svg>
    