<svg xmlns="http://www.w3.org/2000/svg" enable-background="new 0 0 192 192" height="48px" viewBox="0 0 192 192" width="48px"><rect fill="none" height="192" width="192"/><g><g><circle cx="96" cy="96" fill="#FFFFFF" r="88"/></g></g><g><path d="M183.99,96c-0.22,38.38-25.27,70.9-59.99,82.48c-8.8,2.93-18.21,4.52-28,4.52 C47.57,183.01,8.27,144.1,8,96c0,0.17,0,0.33,0,0.5C8,144.82,47.4,184,96,184c9.79,0,19.2-1.59,28-4.52 c34.87-11.63,60-44.39,60-82.98C184,96.33,183.99,96.17,183.99,96z" enable-background="new" opacity=".1"/><path d="M184,96c0-38.81-25.13-71.75-60-83.45C115.2,9.6,105.79,8,96,8 C47.4,8,8,47.4,8,96" enable-background="new" fill="#FFFFFF" opacity=".4"/></g><g><g><path d="M109.52,91.23l19.1-14.55l8.48-18.3c-5.65-10.78-15.4-19.07-27.11-22.75l-17.63,11.9l-10,20.94l0,0 c3.25-3.93,8.13-6.41,13.6-6.41c9.84,0,17.7,7.95,17.7,17.7C113.66,84.13,112.09,88.15,109.52,91.23z" fill="#4285F4"/><path d="M95.96,33.5c-14.28,0-26.94,6.41-35.5,16.59l8.14,13.34l13.75,5.05c0.09-0.09,27.63-32.84,27.63-32.84 C105.54,34.27,100.83,33.5,95.96,33.5z" fill="#1A73E8"/><path d="M109.52,91.23c-3.25,3.85-8.09,6.33-13.56,6.33c-9.84,0-17.7-7.95-17.7-17.7c0-4.19,1.71-8.38,4.11-11.38 L62.06,83l-7.85,19.01c4.88,10.61,12.92,19.16,21.21,29.85l21.75-17.31L109.52,91.23z" fill="#FBBC04"/><path d="M142.4,79.86c0-7.78-1.97-15.05-5.3-21.47l-61.67,73.47c2.74,3.51,5.39,7.27,8.04,11.38 c9.41,14.54,6.59,23.26,12.57,23.26c6.07,0,3.42-8.72,12.83-23.26C124.35,119.03,142.4,108,142.4,79.86z" fill="#34A853"/><path d="M82.36,68.48l-21.9-18.39C53.71,58.13,49.6,68.57,49.6,79.86c0,8.72,1.71,15.82,4.62,22.15L82.36,68.48z" fill="#EA4335"/></g></g><g/><g/><g/></svg>