<svg id="Layer_1" data-name="Layer 1" xmlns="http://www.w3.org/2000/svg" viewBox="0 0 92.28 132.25"><defs><style>.cls-1{fill:#1a73e8;}.cls-2{fill:#ea4335;}.cls-3{fill:#4285f4;}.cls-4{fill:#fbbc04;}.cls-5{fill:#34a853;}</style></defs><title>Maps_Pin_FullColor</title><path class="cls-1" d="M89.77,10.4A46.17,46.17,0,0,0,40.49,24.73l21.8,18.34Z" transform="translate(-29.69 -8.25)"/><path class="cls-2" d="M40.49,24.73a45.93,45.93,0,0,0-10.8,29.66,52,52,0,0,0,4.56,22l28-33.33Z" transform="translate(-29.69 -8.25)"/><path class="cls-3" d="M75.83,36.75a17.65,17.65,0,0,1,13.47,29l27.47-32.66a46.24,46.24,0,0,0-27-22.73L62.29,43.07A17.6,17.6,0,0,1,75.83,36.75Z" transform="translate(-29.69 -8.25)"/><path class="cls-4" d="M75.83,72a17.65,17.65,0,0,1-13.54-29l-28,33.33C39.05,87,47,95.56,55.22,106.31L89.3,65.79A17.6,17.6,0,0,1,75.83,72Z" transform="translate(-29.69 -8.25)"/><path class="cls-5" d="M88.63,117.37C104,93.3,122,82.37,122,54.39a45.93,45.93,0,0,0-5.2-21.26L55.22,106.31c2.61,3.42,5.24,7,7.81,11.06,9.35,14.46,6.76,23.14,12.8,23.14S79.27,131.83,88.63,117.37Z" transform="translate(-29.69 -8.25)"/></svg>