<svg width="16" height="16" viewBox="0 0 16 16" fill="none" xmlns="http://www.w3.org/2000/svg">
    <path d="M13.6826 10.2671C14.1774 10.4494 14.5811 10.7489 14.8936 11.1655C15.2061 11.5822 15.3623 12.064 15.3623 12.6108C15.3623 13.0796 15.2451 13.5093 15.0107 13.8999C14.8024 14.2645 14.5029 14.564 14.1123 14.7983C13.7477 15.0067 13.3311 15.1108 12.8623 15.1108C12.3936 15.1108 11.9639 15.0067 11.5732 14.7983C11.2087 14.564 10.9092 14.2645 10.6748 13.8999C10.4665 13.5093 10.3623 13.0796 10.3623 12.6108C10.3623 12.064 10.5186 11.5822 10.8311 11.1655C11.1436 10.7228 11.5472 10.4233 12.042 10.2671V3.43115C12.042 2.98844 11.8727 2.61084 11.5342 2.29834C11.2217 1.9598 10.8311 1.79053 10.3623 1.79053C9.89355 1.79053 9.48991 1.9598 9.15137 2.29834C8.83887 2.61084 8.68262 2.98844 8.68262 3.43115V11.7905C8.68262 12.3895 8.52637 12.9494 8.21387 13.4702C7.92741 13.965 7.53678 14.3687 7.04199 14.6812C6.5472 14.9676 5.9873 15.1108 5.3623 15.1108C4.7373 15.1108 4.17741 14.9676 3.68262 14.6812C3.18783 14.3687 2.78418 13.965 2.47168 13.4702C2.18522 12.9494 2.04199 12.3895 2.04199 11.7905V4.95459C1.5472 4.7723 1.14355 4.47282 0.831055 4.05615C0.518555 3.63949 0.362305 3.15771 0.362305 2.61084C0.362305 2.14209 0.466471 1.72542 0.674805 1.36084C0.90918 0.970215 1.20866 0.670736 1.57324 0.462402C1.96387 0.228027 2.39355 0.11084 2.8623 0.11084C3.33105 0.11084 3.74772 0.228027 4.1123 0.462402C4.50293 0.670736 4.80241 0.970215 5.01074 1.36084C5.24512 1.72542 5.3623 2.14209 5.3623 2.61084C5.3623 3.15771 5.20605 3.63949 4.89355 4.05615C4.58105 4.47282 4.17741 4.7723 3.68262 4.95459V11.7905C3.68262 12.2332 3.83887 12.6239 4.15137 12.9624C4.48991 13.2749 4.89355 13.4312 5.3623 13.4312C5.83105 13.4312 6.22168 13.2749 6.53418 12.9624C6.87272 12.6239 7.04199 12.2332 7.04199 11.7905V3.43115C7.04199 2.83219 7.18522 2.28532 7.47168 1.79053C7.78418 1.26969 8.18783 0.866048 8.68262 0.57959C9.17741 0.26709 9.7373 0.11084 10.3623 0.11084C10.9873 0.11084 11.5472 0.26709 12.042 0.57959C12.5368 0.866048 12.9274 1.26969 13.2139 1.79053C13.5264 2.28532 13.6826 2.83219 13.6826 3.43115V10.2671Z" fill="#515151"/>
</svg>    