<?xml version="1.0" encoding="UTF-8"?>
<svg enable-background="new 0 0 24 24" fill="black" version="1.1" viewBox="0 0 24 24" xmlns="http://www.w3.org/2000/svg">
 <path d="m21.175 13.175c0.0514-0.375 0.0771-0.7625 0.0771-1.175 0-0.4-0.0257-0.8-0.08995-1.175l2.6087-1.975c0.23131-0.175 0.29557-0.5125 0.15421-0.7625l-2.4673-4.15c-0.15421-0.275-0.47548-0.3625-0.75819-0.275l-3.0713 1.2c-0.64254-0.475-1.3236-0.875-2.0818-1.175l-0.46263-3.175c-0.051403-0.3-0.30842-0.5125-0.61683-0.5125h-4.9347c-0.30842 0-0.55258 0.2125-0.60398 0.5125l-0.46263 3.175c-0.75819 0.3-1.4521 0.7125-2.0818 1.175l-3.0713-1.2c-0.28272-0.1-0.60398 0-0.75819 0.275l-2.4545 4.15c-0.15421 0.2625-0.10281 0.5875 0.15421 0.7625l2.6087 1.975c-0.064254 0.375-0.11566 0.7875-0.11566 1.175s0.025701 0.8 0.089955 1.175l-2.6087 1.975c-0.23131 0.175-0.29557 0.5125-0.15421 0.7625l2.4673 4.15c0.15421 0.275 0.47548 0.3625 0.75819 0.275l3.0713-1.2c0.64254 0.475 1.3236 0.875 2.0818 1.175l0.46263 3.175c0.064254 0.3 0.30842 0.5125 0.61683 0.5125h4.9347c0.30842 0 0.56543-0.2125 0.60398-0.5125l0.46263-3.175c0.75819-0.3 1.4521-0.7 2.0818-1.175l3.0713 1.2c0.28272 0.1 0.60398 0 0.75819-0.275l2.4673-4.15c0.15421-0.275 0.08995-0.5875-0.15421-0.7625zm-9.1754 3.325c-2.5444 0-4.6263-2.025-4.6263-4.5s2.0818-4.5 4.6263-4.5c2.5444 0 4.6263 2.025 4.6263 4.5s-2.0818 4.5-4.6263 4.5z" stroke-width="1.2674"/>
</svg>
