<svg width="24" height="24" version="1.1" viewBox="0 0 24 24" xmlns="http://www.w3.org/2000/svg">
 <g transform="translate(-68.845 -101.12)">
  <g transform="matrix(1.3307 0 0 1.3307 66.841 99.589)" stroke-width=".85884">
   <path d="m17.532 2.4368-1.5545 0.73002 1.6662 3.5728h-9.9712l-2.0097-4.3028-1.5545 0.73002 1.6919 3.6157v2.5336h-2.5336v1.7177h2.5336v1.7177h-3.4354v1.7177h3.4354v1.7263h-4.2942v1.7091h18.036v-11.165zm0.29201 13.75h-10.306v-7.7296h10.306z"/>
   <path d="m10.953 11.893h3.4354c0.47236 0 0.85884-0.38648 0.85884-0.85885 0-0.47236-0.38648-0.85884-0.85884-0.85884h-3.4354c-0.47236 0-0.85884 0.38648-0.85884 0.85884 0 0.47237 0.38648 0.85885 0.85884 0.85885z"/>
  </g>
 </g>
</svg>
