<svg width="24" height="24" version="1.1" viewBox="0 0 24 24" xmlns="http://www.w3.org/2000/svg">
 <g transform="translate(-79.205 -87.607)">
  <path d="m85.795 92.147c0.89801 0 1.6229-0.72432 1.6229-1.6216 0-1.0811-1.6229-2.9189-1.6229-2.9189s-1.6229 1.8378-1.6229 2.9189c0 0.8973 0.7249 1.6216 1.6229 1.6216zm7.0326-1.6216c0 0.8973-0.7249 1.6216-1.6229 1.6216-0.89801 0-1.6229-0.72432-1.6229-1.6216 0-1.0811 1.6229-2.9189 1.6229-2.9189s1.6229 1.8378 1.6229 2.9189zm5.4097 0c0 0.8973-0.7249 1.6216-1.6229 1.6216-0.89801 0-1.6229-0.72432-1.6229-1.6216 0-1.0811 1.6229-2.9189 1.6229-2.9189s1.6229 1.8378 1.6229 2.9189zm-1.0819 3.7838c0.71408 0 1.32 0.45405 1.5364 1.0919l2.2504 6.4757v8.6487c0 0.59459-0.48687 1.0811-1.0819 1.0811h-1.082c-0.59506 0-1.0819-0.48649-1.0819-1.0811v-1.0811h-12.983v1.0811c0 0.59459-0.48688 1.0811-1.0819 1.0811h-1.0819c-0.59507 0-1.0819-0.48649-1.0819-1.0811v-8.6487l2.2504-6.4757c0.22721-0.63784 0.82228-1.0919 1.5364-1.0919zm-11.523 2.1622h11.133l1.1252 3.2432h-13.384zm-2.0016 5.773v5.0378h15.147v-5.0378l-0.11901-0.36758h-14.898zm2.7049 3.9568c0.89628 0 1.6229-0.72649 1.6229-1.6216 0-0.89621-0.72663-1.6216-1.6229-1.6216-0.89628 0-1.6229 0.72541-1.6229 1.6216 0 0.89514 0.72663 1.6216 1.6229 1.6216zm11.36-1.6216c0 0.89514-0.72663 1.6216-1.6229 1.6216-0.89628 0-1.6229-0.72649-1.6229-1.6216 0-0.89621 0.72663-1.6216 1.6229-1.6216 0.89628 0 1.6229 0.72541 1.6229 1.6216z" clip-rule="evenodd" fill-rule="evenodd" stroke-width="1.0815"/>
 </g>
</svg>
