<svg width="24" height="25" viewBox="0 0 24 25" fill="none" xmlns="http://www.w3.org/2000/svg">
    <path d="M16.9219 18.963C17.2031 19.2443 17.5625 19.3849 18 19.3849C18.4375 19.3849 18.7969 19.2443 19.0781 18.963C19.3594 18.6505 19.5 18.2911 19.5 17.8849C19.5 17.4786 19.3594 17.1349 19.0781 16.8536C18.7969 16.5411 18.4375 16.3849 18 16.3849C17.5625 16.3849 17.2031 16.5411 16.9219 16.8536C16.6406 17.1349 16.5 17.4786 16.5 17.8849C16.5 18.2911 16.6406 18.6505 16.9219 18.963ZM19.5 10.3849H17.0156V12.8693H21.4688L19.5 10.3849ZM4.92188 18.963C5.20312 19.2443 5.5625 19.3849 6 19.3849C6.4375 19.3849 6.79688 19.2443 7.07812 18.963C7.35938 18.6505 7.5 18.2911 7.5 17.8849C7.5 17.4786 7.35938 17.1349 7.07812 16.8536C6.79688 16.5411 6.4375 16.3849 6 16.3849C5.5625 16.3849 5.20312 16.5411 4.92188 16.8536C4.64062 17.1349 4.5 17.4786 4.5 17.8849C4.5 18.2911 4.64062 18.6505 4.92188 18.963ZM20.0156 8.88489L23.0156 12.8693V17.8849H21C21 18.6974 20.7031 19.4005 20.1094 19.9943C19.5156 20.588 18.8125 20.8849 18 20.8849C17.1875 20.8849 16.4844 20.588 15.8906 19.9943C15.2969 19.4005 15 18.6974 15 17.8849H9C9 18.6974 8.70312 19.4005 8.10938 19.9943C7.51562 20.588 6.8125 20.8849 6 20.8849C5.1875 20.8849 4.48438 20.588 3.89062 19.9943C3.29688 19.4005 3 18.6974 3 17.8849H0.984375V6.86926C0.984375 6.33801 1.1875 5.86926 1.59375 5.46301C2 5.05676 2.46875 4.85364 3 4.85364H17.0156V8.88489H20.0156Z" fill="#111111"/>
    </svg>
    