<?xml version="1.0" encoding="UTF-8" standalone="no"?>
<!DOCTYPE svg PUBLIC "-//W3C//DTD SVG 1.1//EN" "http://www.w3.org/Graphics/SVG/1.1/DTD/svg11.dtd">
<svg width="100%" height="100%" viewBox="0 0 48 1008" version="1.1" xmlns="http://www.w3.org/2000/svg" xmlns:xlink="http://www.w3.org/1999/xlink" xml:space="preserve" xmlns:serif="http://www.serif.com/" style="fill-rule:evenodd;clip-rule:evenodd;stroke-linejoin:round;stroke-miterlimit:2;">
    <g transform="matrix(1.81844,0,0,1.81844,2.17875,0.336551)">
        <path d="M16.922,18.963C17.203,19.244 17.563,19.385 18,19.385C18.438,19.385 18.797,19.244 19.078,18.963C19.359,18.651 19.5,18.291 19.5,17.885C19.5,17.479 19.359,17.135 19.078,16.854C18.797,16.541 18.438,16.385 18,16.385C17.563,16.385 17.203,16.541 16.922,16.854C16.641,17.135 16.5,17.479 16.5,17.885C16.5,18.291 16.641,18.651 16.922,18.963ZM19.5,10.385L17.016,10.385L17.016,12.869L21.469,12.869L19.5,10.385ZM4.922,18.963C5.203,19.244 5.563,19.385 6,19.385C6.438,19.385 6.797,19.244 7.078,18.963C7.359,18.651 7.5,18.291 7.5,17.885C7.5,17.479 7.359,17.135 7.078,16.854C6.797,16.541 6.438,16.385 6,16.385C5.563,16.385 5.203,16.541 4.922,16.854C4.641,17.135 4.5,17.479 4.5,17.885C4.5,18.291 4.641,18.651 4.922,18.963ZM20.016,8.885L23.016,12.869L23.016,17.885L21,17.885C21,18.697 20.703,19.401 20.109,19.994C19.516,20.588 18.813,20.885 18,20.885C17.188,20.885 16.484,20.588 15.891,19.994C15.297,19.401 15,18.697 15,17.885L9,17.885C9,18.697 8.703,19.401 8.109,19.994C7.516,20.588 6.813,20.885 6,20.885C5.188,20.885 4.484,20.588 3.891,19.994C3.297,19.401 3,18.697 3,17.885L0.984,17.885L0.984,6.869C0.984,6.338 1.188,5.869 1.594,5.463C2,5.057 2.469,4.854 3,4.854L17.016,4.854L17.016,8.885L20.016,8.885Z" style="fill:none;fill-rule:nonzero;stroke:white;stroke-width:2.2px;"/>
        <path d="M16.922,18.963C17.203,19.244 17.563,19.385 18,19.385C18.438,19.385 18.797,19.244 19.078,18.963C19.359,18.651 19.5,18.291 19.5,17.885C19.5,17.479 19.359,17.135 19.078,16.854C18.797,16.541 18.438,16.385 18,16.385C17.563,16.385 17.203,16.541 16.922,16.854C16.641,17.135 16.5,17.479 16.5,17.885C16.5,18.291 16.641,18.651 16.922,18.963ZM19.5,10.385L17.016,10.385L17.016,12.869L21.469,12.869L19.5,10.385ZM4.922,18.963C5.203,19.244 5.563,19.385 6,19.385C6.438,19.385 6.797,19.244 7.078,18.963C7.359,18.651 7.5,18.291 7.5,17.885C7.5,17.479 7.359,17.135 7.078,16.854C6.797,16.541 6.438,16.385 6,16.385C5.563,16.385 5.203,16.541 4.922,16.854C4.641,17.135 4.5,17.479 4.5,17.885C4.5,18.291 4.641,18.651 4.922,18.963ZM20.016,8.885L23.016,12.869L23.016,17.885L21,17.885C21,18.697 20.703,19.401 20.109,19.994C19.516,20.588 18.813,20.885 18,20.885C17.188,20.885 16.484,20.588 15.891,19.994C15.297,19.401 15,18.697 15,17.885L9,17.885C9,18.697 8.703,19.401 8.109,19.994C7.516,20.588 6.813,20.885 6,20.885C5.188,20.885 4.484,20.588 3.891,19.994C3.297,19.401 3,18.697 3,17.885L0.984,17.885L0.984,6.869C0.984,6.338 1.188,5.869 1.594,5.463C2,5.057 2.469,4.854 3,4.854L17.016,4.854L17.016,8.885L20.016,8.885Z" style="fill:rgb(255,160,0);fill-rule:nonzero;"/>
    </g>
    <g transform="matrix(1.81844,0,0,1.81844,2.17875,48.3366)">
        <path d="M16.922,18.963C17.203,19.244 17.563,19.385 18,19.385C18.438,19.385 18.797,19.244 19.078,18.963C19.359,18.651 19.5,18.291 19.5,17.885C19.5,17.479 19.359,17.135 19.078,16.854C18.797,16.541 18.438,16.385 18,16.385C17.563,16.385 17.203,16.541 16.922,16.854C16.641,17.135 16.5,17.479 16.5,17.885C16.5,18.291 16.641,18.651 16.922,18.963ZM19.5,10.385L17.016,10.385L17.016,12.869L21.469,12.869L19.5,10.385ZM4.922,18.963C5.203,19.244 5.563,19.385 6,19.385C6.438,19.385 6.797,19.244 7.078,18.963C7.359,18.651 7.5,18.291 7.5,17.885C7.5,17.479 7.359,17.135 7.078,16.854C6.797,16.541 6.438,16.385 6,16.385C5.563,16.385 5.203,16.541 4.922,16.854C4.641,17.135 4.5,17.479 4.5,17.885C4.5,18.291 4.641,18.651 4.922,18.963ZM20.016,8.885L23.016,12.869L23.016,17.885L21,17.885C21,18.697 20.703,19.401 20.109,19.994C19.516,20.588 18.813,20.885 18,20.885C17.188,20.885 16.484,20.588 15.891,19.994C15.297,19.401 15,18.697 15,17.885L9,17.885C9,18.697 8.703,19.401 8.109,19.994C7.516,20.588 6.813,20.885 6,20.885C5.188,20.885 4.484,20.588 3.891,19.994C3.297,19.401 3,18.697 3,17.885L0.984,17.885L0.984,6.869C0.984,6.338 1.188,5.869 1.594,5.463C2,5.057 2.469,4.854 3,4.854L17.016,4.854L17.016,8.885L20.016,8.885Z" style="fill:none;fill-rule:nonzero;stroke:white;stroke-width:2.2px;"/>
        <path d="M16.922,18.963C17.203,19.244 17.563,19.385 18,19.385C18.438,19.385 18.797,19.244 19.078,18.963C19.359,18.651 19.5,18.291 19.5,17.885C19.5,17.479 19.359,17.135 19.078,16.854C18.797,16.541 18.438,16.385 18,16.385C17.563,16.385 17.203,16.541 16.922,16.854C16.641,17.135 16.5,17.479 16.5,17.885C16.5,18.291 16.641,18.651 16.922,18.963ZM19.5,10.385L17.016,10.385L17.016,12.869L21.469,12.869L19.5,10.385ZM4.922,18.963C5.203,19.244 5.563,19.385 6,19.385C6.438,19.385 6.797,19.244 7.078,18.963C7.359,18.651 7.5,18.291 7.5,17.885C7.5,17.479 7.359,17.135 7.078,16.854C6.797,16.541 6.438,16.385 6,16.385C5.563,16.385 5.203,16.541 4.922,16.854C4.641,17.135 4.5,17.479 4.5,17.885C4.5,18.291 4.641,18.651 4.922,18.963ZM20.016,8.885L23.016,12.869L23.016,17.885L21,17.885C21,18.697 20.703,19.401 20.109,19.994C19.516,20.588 18.813,20.885 18,20.885C17.188,20.885 16.484,20.588 15.891,19.994C15.297,19.401 15,18.697 15,17.885L9,17.885C9,18.697 8.703,19.401 8.109,19.994C7.516,20.588 6.813,20.885 6,20.885C5.188,20.885 4.484,20.588 3.891,19.994C3.297,19.401 3,18.697 3,17.885L0.984,17.885L0.984,6.869C0.984,6.338 1.188,5.869 1.594,5.463C2,5.057 2.469,4.854 3,4.854L17.016,4.854L17.016,8.885L20.016,8.885Z" style="fill-rule:nonzero;"/>
    </g>
    <g transform="matrix(1.81844,0,0,1.81844,2.17875,96.3366)">
        <path d="M16.922,18.963C17.203,19.244 17.563,19.385 18,19.385C18.438,19.385 18.797,19.244 19.078,18.963C19.359,18.651 19.5,18.291 19.5,17.885C19.5,17.479 19.359,17.135 19.078,16.854C18.797,16.541 18.438,16.385 18,16.385C17.563,16.385 17.203,16.541 16.922,16.854C16.641,17.135 16.5,17.479 16.5,17.885C16.5,18.291 16.641,18.651 16.922,18.963ZM19.5,10.385L17.016,10.385L17.016,12.869L21.469,12.869L19.5,10.385ZM4.922,18.963C5.203,19.244 5.563,19.385 6,19.385C6.438,19.385 6.797,19.244 7.078,18.963C7.359,18.651 7.5,18.291 7.5,17.885C7.5,17.479 7.359,17.135 7.078,16.854C6.797,16.541 6.438,16.385 6,16.385C5.563,16.385 5.203,16.541 4.922,16.854C4.641,17.135 4.5,17.479 4.5,17.885C4.5,18.291 4.641,18.651 4.922,18.963ZM20.016,8.885L23.016,12.869L23.016,17.885L21,17.885C21,18.697 20.703,19.401 20.109,19.994C19.516,20.588 18.813,20.885 18,20.885C17.188,20.885 16.484,20.588 15.891,19.994C15.297,19.401 15,18.697 15,17.885L9,17.885C9,18.697 8.703,19.401 8.109,19.994C7.516,20.588 6.813,20.885 6,20.885C5.188,20.885 4.484,20.588 3.891,19.994C3.297,19.401 3,18.697 3,17.885L0.984,17.885L0.984,6.869C0.984,6.338 1.188,5.869 1.594,5.463C2,5.057 2.469,4.854 3,4.854L17.016,4.854L17.016,8.885L20.016,8.885Z" style="fill:none;fill-rule:nonzero;stroke:white;stroke-width:2.2px;"/>
        <path d="M16.922,18.963C17.203,19.244 17.563,19.385 18,19.385C18.438,19.385 18.797,19.244 19.078,18.963C19.359,18.651 19.5,18.291 19.5,17.885C19.5,17.479 19.359,17.135 19.078,16.854C18.797,16.541 18.438,16.385 18,16.385C17.563,16.385 17.203,16.541 16.922,16.854C16.641,17.135 16.5,17.479 16.5,17.885C16.5,18.291 16.641,18.651 16.922,18.963ZM19.5,10.385L17.016,10.385L17.016,12.869L21.469,12.869L19.5,10.385ZM4.922,18.963C5.203,19.244 5.563,19.385 6,19.385C6.438,19.385 6.797,19.244 7.078,18.963C7.359,18.651 7.5,18.291 7.5,17.885C7.5,17.479 7.359,17.135 7.078,16.854C6.797,16.541 6.438,16.385 6,16.385C5.563,16.385 5.203,16.541 4.922,16.854C4.641,17.135 4.5,17.479 4.5,17.885C4.5,18.291 4.641,18.651 4.922,18.963ZM20.016,8.885L23.016,12.869L23.016,17.885L21,17.885C21,18.697 20.703,19.401 20.109,19.994C19.516,20.588 18.813,20.885 18,20.885C17.188,20.885 16.484,20.588 15.891,19.994C15.297,19.401 15,18.697 15,17.885L9,17.885C9,18.697 8.703,19.401 8.109,19.994C7.516,20.588 6.813,20.885 6,20.885C5.188,20.885 4.484,20.588 3.891,19.994C3.297,19.401 3,18.697 3,17.885L0.984,17.885L0.984,6.869C0.984,6.338 1.188,5.869 1.594,5.463C2,5.057 2.469,4.854 3,4.854L17.016,4.854L17.016,8.885L20.016,8.885Z" style="fill:rgb(69,90,100);fill-rule:nonzero;"/>
    </g>
    <g transform="matrix(1.81844,0,0,1.81844,2.17875,144.337)">
        <path d="M16.922,18.963C17.203,19.244 17.563,19.385 18,19.385C18.438,19.385 18.797,19.244 19.078,18.963C19.359,18.651 19.5,18.291 19.5,17.885C19.5,17.479 19.359,17.135 19.078,16.854C18.797,16.541 18.438,16.385 18,16.385C17.563,16.385 17.203,16.541 16.922,16.854C16.641,17.135 16.5,17.479 16.5,17.885C16.5,18.291 16.641,18.651 16.922,18.963ZM19.5,10.385L17.016,10.385L17.016,12.869L21.469,12.869L19.5,10.385ZM4.922,18.963C5.203,19.244 5.563,19.385 6,19.385C6.438,19.385 6.797,19.244 7.078,18.963C7.359,18.651 7.5,18.291 7.5,17.885C7.5,17.479 7.359,17.135 7.078,16.854C6.797,16.541 6.438,16.385 6,16.385C5.563,16.385 5.203,16.541 4.922,16.854C4.641,17.135 4.5,17.479 4.5,17.885C4.5,18.291 4.641,18.651 4.922,18.963ZM20.016,8.885L23.016,12.869L23.016,17.885L21,17.885C21,18.697 20.703,19.401 20.109,19.994C19.516,20.588 18.813,20.885 18,20.885C17.188,20.885 16.484,20.588 15.891,19.994C15.297,19.401 15,18.697 15,17.885L9,17.885C9,18.697 8.703,19.401 8.109,19.994C7.516,20.588 6.813,20.885 6,20.885C5.188,20.885 4.484,20.588 3.891,19.994C3.297,19.401 3,18.697 3,17.885L0.984,17.885L0.984,6.869C0.984,6.338 1.188,5.869 1.594,5.463C2,5.057 2.469,4.854 3,4.854L17.016,4.854L17.016,8.885L20.016,8.885Z" style="fill:none;fill-rule:nonzero;stroke:white;stroke-width:2.2px;"/>
        <path d="M16.922,18.963C17.203,19.244 17.563,19.385 18,19.385C18.438,19.385 18.797,19.244 19.078,18.963C19.359,18.651 19.5,18.291 19.5,17.885C19.5,17.479 19.359,17.135 19.078,16.854C18.797,16.541 18.438,16.385 18,16.385C17.563,16.385 17.203,16.541 16.922,16.854C16.641,17.135 16.5,17.479 16.5,17.885C16.5,18.291 16.641,18.651 16.922,18.963ZM19.5,10.385L17.016,10.385L17.016,12.869L21.469,12.869L19.5,10.385ZM4.922,18.963C5.203,19.244 5.563,19.385 6,19.385C6.438,19.385 6.797,19.244 7.078,18.963C7.359,18.651 7.5,18.291 7.5,17.885C7.5,17.479 7.359,17.135 7.078,16.854C6.797,16.541 6.438,16.385 6,16.385C5.563,16.385 5.203,16.541 4.922,16.854C4.641,17.135 4.5,17.479 4.5,17.885C4.5,18.291 4.641,18.651 4.922,18.963ZM20.016,8.885L23.016,12.869L23.016,17.885L21,17.885C21,18.697 20.703,19.401 20.109,19.994C19.516,20.588 18.813,20.885 18,20.885C17.188,20.885 16.484,20.588 15.891,19.994C15.297,19.401 15,18.697 15,17.885L9,17.885C9,18.697 8.703,19.401 8.109,19.994C7.516,20.588 6.813,20.885 6,20.885C5.188,20.885 4.484,20.588 3.891,19.994C3.297,19.401 3,18.697 3,17.885L0.984,17.885L0.984,6.869C0.984,6.338 1.188,5.869 1.594,5.463C2,5.057 2.469,4.854 3,4.854L17.016,4.854L17.016,8.885L20.016,8.885Z" style="fill:rgb(25,118,210);fill-rule:nonzero;"/>
    </g>
    <g transform="matrix(1.81844,0,0,1.81844,2.17875,192.337)">
        <path d="M16.922,18.963C17.203,19.244 17.563,19.385 18,19.385C18.438,19.385 18.797,19.244 19.078,18.963C19.359,18.651 19.5,18.291 19.5,17.885C19.5,17.479 19.359,17.135 19.078,16.854C18.797,16.541 18.438,16.385 18,16.385C17.563,16.385 17.203,16.541 16.922,16.854C16.641,17.135 16.5,17.479 16.5,17.885C16.5,18.291 16.641,18.651 16.922,18.963ZM19.5,10.385L17.016,10.385L17.016,12.869L21.469,12.869L19.5,10.385ZM4.922,18.963C5.203,19.244 5.563,19.385 6,19.385C6.438,19.385 6.797,19.244 7.078,18.963C7.359,18.651 7.5,18.291 7.5,17.885C7.5,17.479 7.359,17.135 7.078,16.854C6.797,16.541 6.438,16.385 6,16.385C5.563,16.385 5.203,16.541 4.922,16.854C4.641,17.135 4.5,17.479 4.5,17.885C4.5,18.291 4.641,18.651 4.922,18.963ZM20.016,8.885L23.016,12.869L23.016,17.885L21,17.885C21,18.697 20.703,19.401 20.109,19.994C19.516,20.588 18.813,20.885 18,20.885C17.188,20.885 16.484,20.588 15.891,19.994C15.297,19.401 15,18.697 15,17.885L9,17.885C9,18.697 8.703,19.401 8.109,19.994C7.516,20.588 6.813,20.885 6,20.885C5.188,20.885 4.484,20.588 3.891,19.994C3.297,19.401 3,18.697 3,17.885L0.984,17.885L0.984,6.869C0.984,6.338 1.188,5.869 1.594,5.463C2,5.057 2.469,4.854 3,4.854L17.016,4.854L17.016,8.885L20.016,8.885Z" style="fill:none;fill-rule:nonzero;stroke:white;stroke-width:2.2px;"/>
        <path d="M16.922,18.963C17.203,19.244 17.563,19.385 18,19.385C18.438,19.385 18.797,19.244 19.078,18.963C19.359,18.651 19.5,18.291 19.5,17.885C19.5,17.479 19.359,17.135 19.078,16.854C18.797,16.541 18.438,16.385 18,16.385C17.563,16.385 17.203,16.541 16.922,16.854C16.641,17.135 16.5,17.479 16.5,17.885C16.5,18.291 16.641,18.651 16.922,18.963ZM19.5,10.385L17.016,10.385L17.016,12.869L21.469,12.869L19.5,10.385ZM4.922,18.963C5.203,19.244 5.563,19.385 6,19.385C6.438,19.385 6.797,19.244 7.078,18.963C7.359,18.651 7.5,18.291 7.5,17.885C7.5,17.479 7.359,17.135 7.078,16.854C6.797,16.541 6.438,16.385 6,16.385C5.563,16.385 5.203,16.541 4.922,16.854C4.641,17.135 4.5,17.479 4.5,17.885C4.5,18.291 4.641,18.651 4.922,18.963ZM20.016,8.885L23.016,12.869L23.016,17.885L21,17.885C21,18.697 20.703,19.401 20.109,19.994C19.516,20.588 18.813,20.885 18,20.885C17.188,20.885 16.484,20.588 15.891,19.994C15.297,19.401 15,18.697 15,17.885L9,17.885C9,18.697 8.703,19.401 8.109,19.994C7.516,20.588 6.813,20.885 6,20.885C5.188,20.885 4.484,20.588 3.891,19.994C3.297,19.401 3,18.697 3,17.885L0.984,17.885L0.984,6.869C0.984,6.338 1.188,5.869 1.594,5.463C2,5.057 2.469,4.854 3,4.854L17.016,4.854L17.016,8.885L20.016,8.885Z" style="fill:rgb(93,64,55);fill-rule:nonzero;"/>
    </g>
    <g transform="matrix(1.81844,0,0,1.81844,2.17875,240.337)">
        <path d="M16.922,18.963C17.203,19.244 17.563,19.385 18,19.385C18.438,19.385 18.797,19.244 19.078,18.963C19.359,18.651 19.5,18.291 19.5,17.885C19.5,17.479 19.359,17.135 19.078,16.854C18.797,16.541 18.438,16.385 18,16.385C17.563,16.385 17.203,16.541 16.922,16.854C16.641,17.135 16.5,17.479 16.5,17.885C16.5,18.291 16.641,18.651 16.922,18.963ZM19.5,10.385L17.016,10.385L17.016,12.869L21.469,12.869L19.5,10.385ZM4.922,18.963C5.203,19.244 5.563,19.385 6,19.385C6.438,19.385 6.797,19.244 7.078,18.963C7.359,18.651 7.5,18.291 7.5,17.885C7.5,17.479 7.359,17.135 7.078,16.854C6.797,16.541 6.438,16.385 6,16.385C5.563,16.385 5.203,16.541 4.922,16.854C4.641,17.135 4.5,17.479 4.5,17.885C4.5,18.291 4.641,18.651 4.922,18.963ZM20.016,8.885L23.016,12.869L23.016,17.885L21,17.885C21,18.697 20.703,19.401 20.109,19.994C19.516,20.588 18.813,20.885 18,20.885C17.188,20.885 16.484,20.588 15.891,19.994C15.297,19.401 15,18.697 15,17.885L9,17.885C9,18.697 8.703,19.401 8.109,19.994C7.516,20.588 6.813,20.885 6,20.885C5.188,20.885 4.484,20.588 3.891,19.994C3.297,19.401 3,18.697 3,17.885L0.984,17.885L0.984,6.869C0.984,6.338 1.188,5.869 1.594,5.463C2,5.057 2.469,4.854 3,4.854L17.016,4.854L17.016,8.885L20.016,8.885Z" style="fill:none;fill-rule:nonzero;stroke:white;stroke-width:2.2px;"/>
        <path d="M16.922,18.963C17.203,19.244 17.563,19.385 18,19.385C18.438,19.385 18.797,19.244 19.078,18.963C19.359,18.651 19.5,18.291 19.5,17.885C19.5,17.479 19.359,17.135 19.078,16.854C18.797,16.541 18.438,16.385 18,16.385C17.563,16.385 17.203,16.541 16.922,16.854C16.641,17.135 16.5,17.479 16.5,17.885C16.5,18.291 16.641,18.651 16.922,18.963ZM19.5,10.385L17.016,10.385L17.016,12.869L21.469,12.869L19.5,10.385ZM4.922,18.963C5.203,19.244 5.563,19.385 6,19.385C6.438,19.385 6.797,19.244 7.078,18.963C7.359,18.651 7.5,18.291 7.5,17.885C7.5,17.479 7.359,17.135 7.078,16.854C6.797,16.541 6.438,16.385 6,16.385C5.563,16.385 5.203,16.541 4.922,16.854C4.641,17.135 4.5,17.479 4.5,17.885C4.5,18.291 4.641,18.651 4.922,18.963ZM20.016,8.885L23.016,12.869L23.016,17.885L21,17.885C21,18.697 20.703,19.401 20.109,19.994C19.516,20.588 18.813,20.885 18,20.885C17.188,20.885 16.484,20.588 15.891,19.994C15.297,19.401 15,18.697 15,17.885L9,17.885C9,18.697 8.703,19.401 8.109,19.994C7.516,20.588 6.813,20.885 6,20.885C5.188,20.885 4.484,20.588 3.891,19.994C3.297,19.401 3,18.697 3,17.885L0.984,17.885L0.984,6.869C0.984,6.338 1.188,5.869 1.594,5.463C2,5.057 2.469,4.854 3,4.854L17.016,4.854L17.016,8.885L20.016,8.885Z" style="fill:rgb(0,96,100);fill-rule:nonzero;"/>
    </g>
    <g transform="matrix(1.81844,0,0,1.81844,2.17875,288.337)">
        <path d="M16.922,18.963C17.203,19.244 17.563,19.385 18,19.385C18.438,19.385 18.797,19.244 19.078,18.963C19.359,18.651 19.5,18.291 19.5,17.885C19.5,17.479 19.359,17.135 19.078,16.854C18.797,16.541 18.438,16.385 18,16.385C17.563,16.385 17.203,16.541 16.922,16.854C16.641,17.135 16.5,17.479 16.5,17.885C16.5,18.291 16.641,18.651 16.922,18.963ZM19.5,10.385L17.016,10.385L17.016,12.869L21.469,12.869L19.5,10.385ZM4.922,18.963C5.203,19.244 5.563,19.385 6,19.385C6.438,19.385 6.797,19.244 7.078,18.963C7.359,18.651 7.5,18.291 7.5,17.885C7.5,17.479 7.359,17.135 7.078,16.854C6.797,16.541 6.438,16.385 6,16.385C5.563,16.385 5.203,16.541 4.922,16.854C4.641,17.135 4.5,17.479 4.5,17.885C4.5,18.291 4.641,18.651 4.922,18.963ZM20.016,8.885L23.016,12.869L23.016,17.885L21,17.885C21,18.697 20.703,19.401 20.109,19.994C19.516,20.588 18.813,20.885 18,20.885C17.188,20.885 16.484,20.588 15.891,19.994C15.297,19.401 15,18.697 15,17.885L9,17.885C9,18.697 8.703,19.401 8.109,19.994C7.516,20.588 6.813,20.885 6,20.885C5.188,20.885 4.484,20.588 3.891,19.994C3.297,19.401 3,18.697 3,17.885L0.984,17.885L0.984,6.869C0.984,6.338 1.188,5.869 1.594,5.463C2,5.057 2.469,4.854 3,4.854L17.016,4.854L17.016,8.885L20.016,8.885Z" style="fill:none;fill-rule:nonzero;stroke:white;stroke-width:2.2px;"/>
        <path d="M16.922,18.963C17.203,19.244 17.563,19.385 18,19.385C18.438,19.385 18.797,19.244 19.078,18.963C19.359,18.651 19.5,18.291 19.5,17.885C19.5,17.479 19.359,17.135 19.078,16.854C18.797,16.541 18.438,16.385 18,16.385C17.563,16.385 17.203,16.541 16.922,16.854C16.641,17.135 16.5,17.479 16.5,17.885C16.5,18.291 16.641,18.651 16.922,18.963ZM19.5,10.385L17.016,10.385L17.016,12.869L21.469,12.869L19.5,10.385ZM4.922,18.963C5.203,19.244 5.563,19.385 6,19.385C6.438,19.385 6.797,19.244 7.078,18.963C7.359,18.651 7.5,18.291 7.5,17.885C7.5,17.479 7.359,17.135 7.078,16.854C6.797,16.541 6.438,16.385 6,16.385C5.563,16.385 5.203,16.541 4.922,16.854C4.641,17.135 4.5,17.479 4.5,17.885C4.5,18.291 4.641,18.651 4.922,18.963ZM20.016,8.885L23.016,12.869L23.016,17.885L21,17.885C21,18.697 20.703,19.401 20.109,19.994C19.516,20.588 18.813,20.885 18,20.885C17.188,20.885 16.484,20.588 15.891,19.994C15.297,19.401 15,18.697 15,17.885L9,17.885C9,18.697 8.703,19.401 8.109,19.994C7.516,20.588 6.813,20.885 6,20.885C5.188,20.885 4.484,20.588 3.891,19.994C3.297,19.401 3,18.697 3,17.885L0.984,17.885L0.984,6.869C0.984,6.338 1.188,5.869 1.594,5.463C2,5.057 2.469,4.854 3,4.854L17.016,4.854L17.016,8.885L20.016,8.885Z" style="fill:rgb(230,74,25);fill-rule:nonzero;"/>
    </g>
    <g transform="matrix(1.81844,0,0,1.81844,2.17875,336.337)">
        <path d="M16.922,18.963C17.203,19.244 17.563,19.385 18,19.385C18.438,19.385 18.797,19.244 19.078,18.963C19.359,18.651 19.5,18.291 19.5,17.885C19.5,17.479 19.359,17.135 19.078,16.854C18.797,16.541 18.438,16.385 18,16.385C17.563,16.385 17.203,16.541 16.922,16.854C16.641,17.135 16.5,17.479 16.5,17.885C16.5,18.291 16.641,18.651 16.922,18.963ZM19.5,10.385L17.016,10.385L17.016,12.869L21.469,12.869L19.5,10.385ZM4.922,18.963C5.203,19.244 5.563,19.385 6,19.385C6.438,19.385 6.797,19.244 7.078,18.963C7.359,18.651 7.5,18.291 7.5,17.885C7.5,17.479 7.359,17.135 7.078,16.854C6.797,16.541 6.438,16.385 6,16.385C5.563,16.385 5.203,16.541 4.922,16.854C4.641,17.135 4.5,17.479 4.5,17.885C4.5,18.291 4.641,18.651 4.922,18.963ZM20.016,8.885L23.016,12.869L23.016,17.885L21,17.885C21,18.697 20.703,19.401 20.109,19.994C19.516,20.588 18.813,20.885 18,20.885C17.188,20.885 16.484,20.588 15.891,19.994C15.297,19.401 15,18.697 15,17.885L9,17.885C9,18.697 8.703,19.401 8.109,19.994C7.516,20.588 6.813,20.885 6,20.885C5.188,20.885 4.484,20.588 3.891,19.994C3.297,19.401 3,18.697 3,17.885L0.984,17.885L0.984,6.869C0.984,6.338 1.188,5.869 1.594,5.463C2,5.057 2.469,4.854 3,4.854L17.016,4.854L17.016,8.885L20.016,8.885Z" style="fill:none;fill-rule:nonzero;stroke:white;stroke-width:2.2px;"/>
        <path d="M16.922,18.963C17.203,19.244 17.563,19.385 18,19.385C18.438,19.385 18.797,19.244 19.078,18.963C19.359,18.651 19.5,18.291 19.5,17.885C19.5,17.479 19.359,17.135 19.078,16.854C18.797,16.541 18.438,16.385 18,16.385C17.563,16.385 17.203,16.541 16.922,16.854C16.641,17.135 16.5,17.479 16.5,17.885C16.5,18.291 16.641,18.651 16.922,18.963ZM19.5,10.385L17.016,10.385L17.016,12.869L21.469,12.869L19.5,10.385ZM4.922,18.963C5.203,19.244 5.563,19.385 6,19.385C6.438,19.385 6.797,19.244 7.078,18.963C7.359,18.651 7.5,18.291 7.5,17.885C7.5,17.479 7.359,17.135 7.078,16.854C6.797,16.541 6.438,16.385 6,16.385C5.563,16.385 5.203,16.541 4.922,16.854C4.641,17.135 4.5,17.479 4.5,17.885C4.5,18.291 4.641,18.651 4.922,18.963ZM20.016,8.885L23.016,12.869L23.016,17.885L21,17.885C21,18.697 20.703,19.401 20.109,19.994C19.516,20.588 18.813,20.885 18,20.885C17.188,20.885 16.484,20.588 15.891,19.994C15.297,19.401 15,18.697 15,17.885L9,17.885C9,18.697 8.703,19.401 8.109,19.994C7.516,20.588 6.813,20.885 6,20.885C5.188,20.885 4.484,20.588 3.891,19.994C3.297,19.401 3,18.697 3,17.885L0.984,17.885L0.984,6.869C0.984,6.338 1.188,5.869 1.594,5.463C2,5.057 2.469,4.854 3,4.854L17.016,4.854L17.016,8.885L20.016,8.885Z" style="fill:rgb(81,45,168);fill-rule:nonzero;"/>
    </g>
    <g transform="matrix(1.81844,0,0,1.81844,2.17875,384.337)">
        <path d="M16.922,18.963C17.203,19.244 17.563,19.385 18,19.385C18.438,19.385 18.797,19.244 19.078,18.963C19.359,18.651 19.5,18.291 19.5,17.885C19.5,17.479 19.359,17.135 19.078,16.854C18.797,16.541 18.438,16.385 18,16.385C17.563,16.385 17.203,16.541 16.922,16.854C16.641,17.135 16.5,17.479 16.5,17.885C16.5,18.291 16.641,18.651 16.922,18.963ZM19.5,10.385L17.016,10.385L17.016,12.869L21.469,12.869L19.5,10.385ZM4.922,18.963C5.203,19.244 5.563,19.385 6,19.385C6.438,19.385 6.797,19.244 7.078,18.963C7.359,18.651 7.5,18.291 7.5,17.885C7.5,17.479 7.359,17.135 7.078,16.854C6.797,16.541 6.438,16.385 6,16.385C5.563,16.385 5.203,16.541 4.922,16.854C4.641,17.135 4.5,17.479 4.5,17.885C4.5,18.291 4.641,18.651 4.922,18.963ZM20.016,8.885L23.016,12.869L23.016,17.885L21,17.885C21,18.697 20.703,19.401 20.109,19.994C19.516,20.588 18.813,20.885 18,20.885C17.188,20.885 16.484,20.588 15.891,19.994C15.297,19.401 15,18.697 15,17.885L9,17.885C9,18.697 8.703,19.401 8.109,19.994C7.516,20.588 6.813,20.885 6,20.885C5.188,20.885 4.484,20.588 3.891,19.994C3.297,19.401 3,18.697 3,17.885L0.984,17.885L0.984,6.869C0.984,6.338 1.188,5.869 1.594,5.463C2,5.057 2.469,4.854 3,4.854L17.016,4.854L17.016,8.885L20.016,8.885Z" style="fill:none;fill-rule:nonzero;stroke:white;stroke-width:2.2px;"/>
        <path d="M16.922,18.963C17.203,19.244 17.563,19.385 18,19.385C18.438,19.385 18.797,19.244 19.078,18.963C19.359,18.651 19.5,18.291 19.5,17.885C19.5,17.479 19.359,17.135 19.078,16.854C18.797,16.541 18.438,16.385 18,16.385C17.563,16.385 17.203,16.541 16.922,16.854C16.641,17.135 16.5,17.479 16.5,17.885C16.5,18.291 16.641,18.651 16.922,18.963ZM19.5,10.385L17.016,10.385L17.016,12.869L21.469,12.869L19.5,10.385ZM4.922,18.963C5.203,19.244 5.563,19.385 6,19.385C6.438,19.385 6.797,19.244 7.078,18.963C7.359,18.651 7.5,18.291 7.5,17.885C7.5,17.479 7.359,17.135 7.078,16.854C6.797,16.541 6.438,16.385 6,16.385C5.563,16.385 5.203,16.541 4.922,16.854C4.641,17.135 4.5,17.479 4.5,17.885C4.5,18.291 4.641,18.651 4.922,18.963ZM20.016,8.885L23.016,12.869L23.016,17.885L21,17.885C21,18.697 20.703,19.401 20.109,19.994C19.516,20.588 18.813,20.885 18,20.885C17.188,20.885 16.484,20.588 15.891,19.994C15.297,19.401 15,18.697 15,17.885L9,17.885C9,18.697 8.703,19.401 8.109,19.994C7.516,20.588 6.813,20.885 6,20.885C5.188,20.885 4.484,20.588 3.891,19.994C3.297,19.401 3,18.697 3,17.885L0.984,17.885L0.984,6.869C0.984,6.338 1.188,5.869 1.594,5.463C2,5.057 2.469,4.854 3,4.854L17.016,4.854L17.016,8.885L20.016,8.885Z" style="fill:rgb(56,142,60);fill-rule:nonzero;"/>
    </g>
    <g transform="matrix(1.81844,0,0,1.81844,2.17875,432.337)">
        <path d="M16.922,18.963C17.203,19.244 17.563,19.385 18,19.385C18.438,19.385 18.797,19.244 19.078,18.963C19.359,18.651 19.5,18.291 19.5,17.885C19.5,17.479 19.359,17.135 19.078,16.854C18.797,16.541 18.438,16.385 18,16.385C17.563,16.385 17.203,16.541 16.922,16.854C16.641,17.135 16.5,17.479 16.5,17.885C16.5,18.291 16.641,18.651 16.922,18.963ZM19.5,10.385L17.016,10.385L17.016,12.869L21.469,12.869L19.5,10.385ZM4.922,18.963C5.203,19.244 5.563,19.385 6,19.385C6.438,19.385 6.797,19.244 7.078,18.963C7.359,18.651 7.5,18.291 7.5,17.885C7.5,17.479 7.359,17.135 7.078,16.854C6.797,16.541 6.438,16.385 6,16.385C5.563,16.385 5.203,16.541 4.922,16.854C4.641,17.135 4.5,17.479 4.5,17.885C4.5,18.291 4.641,18.651 4.922,18.963ZM20.016,8.885L23.016,12.869L23.016,17.885L21,17.885C21,18.697 20.703,19.401 20.109,19.994C19.516,20.588 18.813,20.885 18,20.885C17.188,20.885 16.484,20.588 15.891,19.994C15.297,19.401 15,18.697 15,17.885L9,17.885C9,18.697 8.703,19.401 8.109,19.994C7.516,20.588 6.813,20.885 6,20.885C5.188,20.885 4.484,20.588 3.891,19.994C3.297,19.401 3,18.697 3,17.885L0.984,17.885L0.984,6.869C0.984,6.338 1.188,5.869 1.594,5.463C2,5.057 2.469,4.854 3,4.854L17.016,4.854L17.016,8.885L20.016,8.885Z" style="fill:none;fill-rule:nonzero;stroke:white;stroke-width:2.2px;"/>
        <path d="M16.922,18.963C17.203,19.244 17.563,19.385 18,19.385C18.438,19.385 18.797,19.244 19.078,18.963C19.359,18.651 19.5,18.291 19.5,17.885C19.5,17.479 19.359,17.135 19.078,16.854C18.797,16.541 18.438,16.385 18,16.385C17.563,16.385 17.203,16.541 16.922,16.854C16.641,17.135 16.5,17.479 16.5,17.885C16.5,18.291 16.641,18.651 16.922,18.963ZM19.5,10.385L17.016,10.385L17.016,12.869L21.469,12.869L19.5,10.385ZM4.922,18.963C5.203,19.244 5.563,19.385 6,19.385C6.438,19.385 6.797,19.244 7.078,18.963C7.359,18.651 7.5,18.291 7.5,17.885C7.5,17.479 7.359,17.135 7.078,16.854C6.797,16.541 6.438,16.385 6,16.385C5.563,16.385 5.203,16.541 4.922,16.854C4.641,17.135 4.5,17.479 4.5,17.885C4.5,18.291 4.641,18.651 4.922,18.963ZM20.016,8.885L23.016,12.869L23.016,17.885L21,17.885C21,18.697 20.703,19.401 20.109,19.994C19.516,20.588 18.813,20.885 18,20.885C17.188,20.885 16.484,20.588 15.891,19.994C15.297,19.401 15,18.697 15,17.885L9,17.885C9,18.697 8.703,19.401 8.109,19.994C7.516,20.588 6.813,20.885 6,20.885C5.188,20.885 4.484,20.588 3.891,19.994C3.297,19.401 3,18.697 3,17.885L0.984,17.885L0.984,6.869C0.984,6.338 1.188,5.869 1.594,5.463C2,5.057 2.469,4.854 3,4.854L17.016,4.854L17.016,8.885L20.016,8.885Z" style="fill:rgb(97,97,97);fill-rule:nonzero;"/>
    </g>
    <g transform="matrix(1.81844,0,0,1.81844,2.17875,480.337)">
        <path d="M16.922,18.963C17.203,19.244 17.563,19.385 18,19.385C18.438,19.385 18.797,19.244 19.078,18.963C19.359,18.651 19.5,18.291 19.5,17.885C19.5,17.479 19.359,17.135 19.078,16.854C18.797,16.541 18.438,16.385 18,16.385C17.563,16.385 17.203,16.541 16.922,16.854C16.641,17.135 16.5,17.479 16.5,17.885C16.5,18.291 16.641,18.651 16.922,18.963ZM19.5,10.385L17.016,10.385L17.016,12.869L21.469,12.869L19.5,10.385ZM4.922,18.963C5.203,19.244 5.563,19.385 6,19.385C6.438,19.385 6.797,19.244 7.078,18.963C7.359,18.651 7.5,18.291 7.5,17.885C7.5,17.479 7.359,17.135 7.078,16.854C6.797,16.541 6.438,16.385 6,16.385C5.563,16.385 5.203,16.541 4.922,16.854C4.641,17.135 4.5,17.479 4.5,17.885C4.5,18.291 4.641,18.651 4.922,18.963ZM20.016,8.885L23.016,12.869L23.016,17.885L21,17.885C21,18.697 20.703,19.401 20.109,19.994C19.516,20.588 18.813,20.885 18,20.885C17.188,20.885 16.484,20.588 15.891,19.994C15.297,19.401 15,18.697 15,17.885L9,17.885C9,18.697 8.703,19.401 8.109,19.994C7.516,20.588 6.813,20.885 6,20.885C5.188,20.885 4.484,20.588 3.891,19.994C3.297,19.401 3,18.697 3,17.885L0.984,17.885L0.984,6.869C0.984,6.338 1.188,5.869 1.594,5.463C2,5.057 2.469,4.854 3,4.854L17.016,4.854L17.016,8.885L20.016,8.885Z" style="fill:none;fill-rule:nonzero;stroke:white;stroke-width:2.2px;"/>
        <path d="M16.922,18.963C17.203,19.244 17.563,19.385 18,19.385C18.438,19.385 18.797,19.244 19.078,18.963C19.359,18.651 19.5,18.291 19.5,17.885C19.5,17.479 19.359,17.135 19.078,16.854C18.797,16.541 18.438,16.385 18,16.385C17.563,16.385 17.203,16.541 16.922,16.854C16.641,17.135 16.5,17.479 16.5,17.885C16.5,18.291 16.641,18.651 16.922,18.963ZM19.5,10.385L17.016,10.385L17.016,12.869L21.469,12.869L19.5,10.385ZM4.922,18.963C5.203,19.244 5.563,19.385 6,19.385C6.438,19.385 6.797,19.244 7.078,18.963C7.359,18.651 7.5,18.291 7.5,17.885C7.5,17.479 7.359,17.135 7.078,16.854C6.797,16.541 6.438,16.385 6,16.385C5.563,16.385 5.203,16.541 4.922,16.854C4.641,17.135 4.5,17.479 4.5,17.885C4.5,18.291 4.641,18.651 4.922,18.963ZM20.016,8.885L23.016,12.869L23.016,17.885L21,17.885C21,18.697 20.703,19.401 20.109,19.994C19.516,20.588 18.813,20.885 18,20.885C17.188,20.885 16.484,20.588 15.891,19.994C15.297,19.401 15,18.697 15,17.885L9,17.885C9,18.697 8.703,19.401 8.109,19.994C7.516,20.588 6.813,20.885 6,20.885C5.188,20.885 4.484,20.588 3.891,19.994C3.297,19.401 3,18.697 3,17.885L0.984,17.885L0.984,6.869C0.984,6.338 1.188,5.869 1.594,5.463C2,5.057 2.469,4.854 3,4.854L17.016,4.854L17.016,8.885L20.016,8.885Z" style="fill:rgb(48,63,159);fill-rule:nonzero;"/>
    </g>
    <g transform="matrix(1.81844,0,0,1.81844,2.17875,528.337)">
        <path d="M16.922,18.963C17.203,19.244 17.563,19.385 18,19.385C18.438,19.385 18.797,19.244 19.078,18.963C19.359,18.651 19.5,18.291 19.5,17.885C19.5,17.479 19.359,17.135 19.078,16.854C18.797,16.541 18.438,16.385 18,16.385C17.563,16.385 17.203,16.541 16.922,16.854C16.641,17.135 16.5,17.479 16.5,17.885C16.5,18.291 16.641,18.651 16.922,18.963ZM19.5,10.385L17.016,10.385L17.016,12.869L21.469,12.869L19.5,10.385ZM4.922,18.963C5.203,19.244 5.563,19.385 6,19.385C6.438,19.385 6.797,19.244 7.078,18.963C7.359,18.651 7.5,18.291 7.5,17.885C7.5,17.479 7.359,17.135 7.078,16.854C6.797,16.541 6.438,16.385 6,16.385C5.563,16.385 5.203,16.541 4.922,16.854C4.641,17.135 4.5,17.479 4.5,17.885C4.5,18.291 4.641,18.651 4.922,18.963ZM20.016,8.885L23.016,12.869L23.016,17.885L21,17.885C21,18.697 20.703,19.401 20.109,19.994C19.516,20.588 18.813,20.885 18,20.885C17.188,20.885 16.484,20.588 15.891,19.994C15.297,19.401 15,18.697 15,17.885L9,17.885C9,18.697 8.703,19.401 8.109,19.994C7.516,20.588 6.813,20.885 6,20.885C5.188,20.885 4.484,20.588 3.891,19.994C3.297,19.401 3,18.697 3,17.885L0.984,17.885L0.984,6.869C0.984,6.338 1.188,5.869 1.594,5.463C2,5.057 2.469,4.854 3,4.854L17.016,4.854L17.016,8.885L20.016,8.885Z" style="fill:none;fill-rule:nonzero;stroke:white;stroke-width:2.2px;"/>
        <path d="M16.922,18.963C17.203,19.244 17.563,19.385 18,19.385C18.438,19.385 18.797,19.244 19.078,18.963C19.359,18.651 19.5,18.291 19.5,17.885C19.5,17.479 19.359,17.135 19.078,16.854C18.797,16.541 18.438,16.385 18,16.385C17.563,16.385 17.203,16.541 16.922,16.854C16.641,17.135 16.5,17.479 16.5,17.885C16.5,18.291 16.641,18.651 16.922,18.963ZM19.5,10.385L17.016,10.385L17.016,12.869L21.469,12.869L19.5,10.385ZM4.922,18.963C5.203,19.244 5.563,19.385 6,19.385C6.438,19.385 6.797,19.244 7.078,18.963C7.359,18.651 7.5,18.291 7.5,17.885C7.5,17.479 7.359,17.135 7.078,16.854C6.797,16.541 6.438,16.385 6,16.385C5.563,16.385 5.203,16.541 4.922,16.854C4.641,17.135 4.5,17.479 4.5,17.885C4.5,18.291 4.641,18.651 4.922,18.963ZM20.016,8.885L23.016,12.869L23.016,17.885L21,17.885C21,18.697 20.703,19.401 20.109,19.994C19.516,20.588 18.813,20.885 18,20.885C17.188,20.885 16.484,20.588 15.891,19.994C15.297,19.401 15,18.697 15,17.885L9,17.885C9,18.697 8.703,19.401 8.109,19.994C7.516,20.588 6.813,20.885 6,20.885C5.188,20.885 4.484,20.588 3.891,19.994C3.297,19.401 3,18.697 3,17.885L0.984,17.885L0.984,6.869C0.984,6.338 1.188,5.869 1.594,5.463C2,5.057 2.469,4.854 3,4.854L17.016,4.854L17.016,8.885L20.016,8.885Z" style="fill:rgb(2,136,209);fill-rule:nonzero;"/>
    </g>
    <g transform="matrix(1.81844,0,0,1.81844,2.17875,576.337)">
        <path d="M16.922,18.963C17.203,19.244 17.563,19.385 18,19.385C18.438,19.385 18.797,19.244 19.078,18.963C19.359,18.651 19.5,18.291 19.5,17.885C19.5,17.479 19.359,17.135 19.078,16.854C18.797,16.541 18.438,16.385 18,16.385C17.563,16.385 17.203,16.541 16.922,16.854C16.641,17.135 16.5,17.479 16.5,17.885C16.5,18.291 16.641,18.651 16.922,18.963ZM19.5,10.385L17.016,10.385L17.016,12.869L21.469,12.869L19.5,10.385ZM4.922,18.963C5.203,19.244 5.563,19.385 6,19.385C6.438,19.385 6.797,19.244 7.078,18.963C7.359,18.651 7.5,18.291 7.5,17.885C7.5,17.479 7.359,17.135 7.078,16.854C6.797,16.541 6.438,16.385 6,16.385C5.563,16.385 5.203,16.541 4.922,16.854C4.641,17.135 4.5,17.479 4.5,17.885C4.5,18.291 4.641,18.651 4.922,18.963ZM20.016,8.885L23.016,12.869L23.016,17.885L21,17.885C21,18.697 20.703,19.401 20.109,19.994C19.516,20.588 18.813,20.885 18,20.885C17.188,20.885 16.484,20.588 15.891,19.994C15.297,19.401 15,18.697 15,17.885L9,17.885C9,18.697 8.703,19.401 8.109,19.994C7.516,20.588 6.813,20.885 6,20.885C5.188,20.885 4.484,20.588 3.891,19.994C3.297,19.401 3,18.697 3,17.885L0.984,17.885L0.984,6.869C0.984,6.338 1.188,5.869 1.594,5.463C2,5.057 2.469,4.854 3,4.854L17.016,4.854L17.016,8.885L20.016,8.885Z" style="fill:none;fill-rule:nonzero;stroke:white;stroke-width:2.2px;"/>
        <path d="M16.922,18.963C17.203,19.244 17.563,19.385 18,19.385C18.438,19.385 18.797,19.244 19.078,18.963C19.359,18.651 19.5,18.291 19.5,17.885C19.5,17.479 19.359,17.135 19.078,16.854C18.797,16.541 18.438,16.385 18,16.385C17.563,16.385 17.203,16.541 16.922,16.854C16.641,17.135 16.5,17.479 16.5,17.885C16.5,18.291 16.641,18.651 16.922,18.963ZM19.5,10.385L17.016,10.385L17.016,12.869L21.469,12.869L19.5,10.385ZM4.922,18.963C5.203,19.244 5.563,19.385 6,19.385C6.438,19.385 6.797,19.244 7.078,18.963C7.359,18.651 7.5,18.291 7.5,17.885C7.5,17.479 7.359,17.135 7.078,16.854C6.797,16.541 6.438,16.385 6,16.385C5.563,16.385 5.203,16.541 4.922,16.854C4.641,17.135 4.5,17.479 4.5,17.885C4.5,18.291 4.641,18.651 4.922,18.963ZM20.016,8.885L23.016,12.869L23.016,17.885L21,17.885C21,18.697 20.703,19.401 20.109,19.994C19.516,20.588 18.813,20.885 18,20.885C17.188,20.885 16.484,20.588 15.891,19.994C15.297,19.401 15,18.697 15,17.885L9,17.885C9,18.697 8.703,19.401 8.109,19.994C7.516,20.588 6.813,20.885 6,20.885C5.188,20.885 4.484,20.588 3.891,19.994C3.297,19.401 3,18.697 3,17.885L0.984,17.885L0.984,6.869C0.984,6.338 1.188,5.869 1.594,5.463C2,5.057 2.469,4.854 3,4.854L17.016,4.854L17.016,8.885L20.016,8.885Z" style="fill:rgb(104,159,56);fill-rule:nonzero;"/>
    </g>
    <g transform="matrix(1.81844,0,0,1.81844,2.17875,624.337)">
        <path d="M16.922,18.963C17.203,19.244 17.563,19.385 18,19.385C18.438,19.385 18.797,19.244 19.078,18.963C19.359,18.651 19.5,18.291 19.5,17.885C19.5,17.479 19.359,17.135 19.078,16.854C18.797,16.541 18.438,16.385 18,16.385C17.563,16.385 17.203,16.541 16.922,16.854C16.641,17.135 16.5,17.479 16.5,17.885C16.5,18.291 16.641,18.651 16.922,18.963ZM19.5,10.385L17.016,10.385L17.016,12.869L21.469,12.869L19.5,10.385ZM4.922,18.963C5.203,19.244 5.563,19.385 6,19.385C6.438,19.385 6.797,19.244 7.078,18.963C7.359,18.651 7.5,18.291 7.5,17.885C7.5,17.479 7.359,17.135 7.078,16.854C6.797,16.541 6.438,16.385 6,16.385C5.563,16.385 5.203,16.541 4.922,16.854C4.641,17.135 4.5,17.479 4.5,17.885C4.5,18.291 4.641,18.651 4.922,18.963ZM20.016,8.885L23.016,12.869L23.016,17.885L21,17.885C21,18.697 20.703,19.401 20.109,19.994C19.516,20.588 18.813,20.885 18,20.885C17.188,20.885 16.484,20.588 15.891,19.994C15.297,19.401 15,18.697 15,17.885L9,17.885C9,18.697 8.703,19.401 8.109,19.994C7.516,20.588 6.813,20.885 6,20.885C5.188,20.885 4.484,20.588 3.891,19.994C3.297,19.401 3,18.697 3,17.885L0.984,17.885L0.984,6.869C0.984,6.338 1.188,5.869 1.594,5.463C2,5.057 2.469,4.854 3,4.854L17.016,4.854L17.016,8.885L20.016,8.885Z" style="fill:none;fill-rule:nonzero;stroke:white;stroke-width:2.2px;"/>
        <path d="M16.922,18.963C17.203,19.244 17.563,19.385 18,19.385C18.438,19.385 18.797,19.244 19.078,18.963C19.359,18.651 19.5,18.291 19.5,17.885C19.5,17.479 19.359,17.135 19.078,16.854C18.797,16.541 18.438,16.385 18,16.385C17.563,16.385 17.203,16.541 16.922,16.854C16.641,17.135 16.5,17.479 16.5,17.885C16.5,18.291 16.641,18.651 16.922,18.963ZM19.5,10.385L17.016,10.385L17.016,12.869L21.469,12.869L19.5,10.385ZM4.922,18.963C5.203,19.244 5.563,19.385 6,19.385C6.438,19.385 6.797,19.244 7.078,18.963C7.359,18.651 7.5,18.291 7.5,17.885C7.5,17.479 7.359,17.135 7.078,16.854C6.797,16.541 6.438,16.385 6,16.385C5.563,16.385 5.203,16.541 4.922,16.854C4.641,17.135 4.5,17.479 4.5,17.885C4.5,18.291 4.641,18.651 4.922,18.963ZM20.016,8.885L23.016,12.869L23.016,17.885L21,17.885C21,18.697 20.703,19.401 20.109,19.994C19.516,20.588 18.813,20.885 18,20.885C17.188,20.885 16.484,20.588 15.891,19.994C15.297,19.401 15,18.697 15,17.885L9,17.885C9,18.697 8.703,19.401 8.109,19.994C7.516,20.588 6.813,20.885 6,20.885C5.188,20.885 4.484,20.588 3.891,19.994C3.297,19.401 3,18.697 3,17.885L0.984,17.885L0.984,6.869C0.984,6.338 1.188,5.869 1.594,5.463C2,5.057 2.469,4.854 3,4.854L17.016,4.854L17.016,8.885L20.016,8.885Z" style="fill:rgb(175,180,43);fill-rule:nonzero;"/>
    </g>
    <g transform="matrix(1.81844,0,0,1.81844,2.17875,672.337)">
        <path d="M16.922,18.963C17.203,19.244 17.563,19.385 18,19.385C18.438,19.385 18.797,19.244 19.078,18.963C19.359,18.651 19.5,18.291 19.5,17.885C19.5,17.479 19.359,17.135 19.078,16.854C18.797,16.541 18.438,16.385 18,16.385C17.563,16.385 17.203,16.541 16.922,16.854C16.641,17.135 16.5,17.479 16.5,17.885C16.5,18.291 16.641,18.651 16.922,18.963ZM19.5,10.385L17.016,10.385L17.016,12.869L21.469,12.869L19.5,10.385ZM4.922,18.963C5.203,19.244 5.563,19.385 6,19.385C6.438,19.385 6.797,19.244 7.078,18.963C7.359,18.651 7.5,18.291 7.5,17.885C7.5,17.479 7.359,17.135 7.078,16.854C6.797,16.541 6.438,16.385 6,16.385C5.563,16.385 5.203,16.541 4.922,16.854C4.641,17.135 4.5,17.479 4.5,17.885C4.5,18.291 4.641,18.651 4.922,18.963ZM20.016,8.885L23.016,12.869L23.016,17.885L21,17.885C21,18.697 20.703,19.401 20.109,19.994C19.516,20.588 18.813,20.885 18,20.885C17.188,20.885 16.484,20.588 15.891,19.994C15.297,19.401 15,18.697 15,17.885L9,17.885C9,18.697 8.703,19.401 8.109,19.994C7.516,20.588 6.813,20.885 6,20.885C5.188,20.885 4.484,20.588 3.891,19.994C3.297,19.401 3,18.697 3,17.885L0.984,17.885L0.984,6.869C0.984,6.338 1.188,5.869 1.594,5.463C2,5.057 2.469,4.854 3,4.854L17.016,4.854L17.016,8.885L20.016,8.885Z" style="fill:none;fill-rule:nonzero;stroke:white;stroke-width:2.2px;"/>
        <path d="M16.922,18.963C17.203,19.244 17.563,19.385 18,19.385C18.438,19.385 18.797,19.244 19.078,18.963C19.359,18.651 19.5,18.291 19.5,17.885C19.5,17.479 19.359,17.135 19.078,16.854C18.797,16.541 18.438,16.385 18,16.385C17.563,16.385 17.203,16.541 16.922,16.854C16.641,17.135 16.5,17.479 16.5,17.885C16.5,18.291 16.641,18.651 16.922,18.963ZM19.5,10.385L17.016,10.385L17.016,12.869L21.469,12.869L19.5,10.385ZM4.922,18.963C5.203,19.244 5.563,19.385 6,19.385C6.438,19.385 6.797,19.244 7.078,18.963C7.359,18.651 7.5,18.291 7.5,17.885C7.5,17.479 7.359,17.135 7.078,16.854C6.797,16.541 6.438,16.385 6,16.385C5.563,16.385 5.203,16.541 4.922,16.854C4.641,17.135 4.5,17.479 4.5,17.885C4.5,18.291 4.641,18.651 4.922,18.963ZM20.016,8.885L23.016,12.869L23.016,17.885L21,17.885C21,18.697 20.703,19.401 20.109,19.994C19.516,20.588 18.813,20.885 18,20.885C17.188,20.885 16.484,20.588 15.891,19.994C15.297,19.401 15,18.697 15,17.885L9,17.885C9,18.697 8.703,19.401 8.109,19.994C7.516,20.588 6.813,20.885 6,20.885C5.188,20.885 4.484,20.588 3.891,19.994C3.297,19.401 3,18.697 3,17.885L0.984,17.885L0.984,6.869C0.984,6.338 1.188,5.869 1.594,5.463C2,5.057 2.469,4.854 3,4.854L17.016,4.854L17.016,8.885L20.016,8.885Z" style="fill:rgb(245,124,0);fill-rule:nonzero;"/>
    </g>
    <g transform="matrix(1.81844,0,0,1.81844,2.17875,720.337)">
        <path d="M16.922,18.963C17.203,19.244 17.563,19.385 18,19.385C18.438,19.385 18.797,19.244 19.078,18.963C19.359,18.651 19.5,18.291 19.5,17.885C19.5,17.479 19.359,17.135 19.078,16.854C18.797,16.541 18.438,16.385 18,16.385C17.563,16.385 17.203,16.541 16.922,16.854C16.641,17.135 16.5,17.479 16.5,17.885C16.5,18.291 16.641,18.651 16.922,18.963ZM19.5,10.385L17.016,10.385L17.016,12.869L21.469,12.869L19.5,10.385ZM4.922,18.963C5.203,19.244 5.563,19.385 6,19.385C6.438,19.385 6.797,19.244 7.078,18.963C7.359,18.651 7.5,18.291 7.5,17.885C7.5,17.479 7.359,17.135 7.078,16.854C6.797,16.541 6.438,16.385 6,16.385C5.563,16.385 5.203,16.541 4.922,16.854C4.641,17.135 4.5,17.479 4.5,17.885C4.5,18.291 4.641,18.651 4.922,18.963ZM20.016,8.885L23.016,12.869L23.016,17.885L21,17.885C21,18.697 20.703,19.401 20.109,19.994C19.516,20.588 18.813,20.885 18,20.885C17.188,20.885 16.484,20.588 15.891,19.994C15.297,19.401 15,18.697 15,17.885L9,17.885C9,18.697 8.703,19.401 8.109,19.994C7.516,20.588 6.813,20.885 6,20.885C5.188,20.885 4.484,20.588 3.891,19.994C3.297,19.401 3,18.697 3,17.885L0.984,17.885L0.984,6.869C0.984,6.338 1.188,5.869 1.594,5.463C2,5.057 2.469,4.854 3,4.854L17.016,4.854L17.016,8.885L20.016,8.885Z" style="fill:none;fill-rule:nonzero;stroke:white;stroke-width:2.2px;"/>
        <path d="M16.922,18.963C17.203,19.244 17.563,19.385 18,19.385C18.438,19.385 18.797,19.244 19.078,18.963C19.359,18.651 19.5,18.291 19.5,17.885C19.5,17.479 19.359,17.135 19.078,16.854C18.797,16.541 18.438,16.385 18,16.385C17.563,16.385 17.203,16.541 16.922,16.854C16.641,17.135 16.5,17.479 16.5,17.885C16.5,18.291 16.641,18.651 16.922,18.963ZM19.5,10.385L17.016,10.385L17.016,12.869L21.469,12.869L19.5,10.385ZM4.922,18.963C5.203,19.244 5.563,19.385 6,19.385C6.438,19.385 6.797,19.244 7.078,18.963C7.359,18.651 7.5,18.291 7.5,17.885C7.5,17.479 7.359,17.135 7.078,16.854C6.797,16.541 6.438,16.385 6,16.385C5.563,16.385 5.203,16.541 4.922,16.854C4.641,17.135 4.5,17.479 4.5,17.885C4.5,18.291 4.641,18.651 4.922,18.963ZM20.016,8.885L23.016,12.869L23.016,17.885L21,17.885C21,18.697 20.703,19.401 20.109,19.994C19.516,20.588 18.813,20.885 18,20.885C17.188,20.885 16.484,20.588 15.891,19.994C15.297,19.401 15,18.697 15,17.885L9,17.885C9,18.697 8.703,19.401 8.109,19.994C7.516,20.588 6.813,20.885 6,20.885C5.188,20.885 4.484,20.588 3.891,19.994C3.297,19.401 3,18.697 3,17.885L0.984,17.885L0.984,6.869C0.984,6.338 1.188,5.869 1.594,5.463C2,5.057 2.469,4.854 3,4.854L17.016,4.854L17.016,8.885L20.016,8.885Z" style="fill:rgb(194,24,91);fill-rule:nonzero;"/>
    </g>
    <g transform="matrix(1.81844,0,0,1.81844,2.17875,768.337)">
        <path d="M16.922,18.963C17.203,19.244 17.563,19.385 18,19.385C18.438,19.385 18.797,19.244 19.078,18.963C19.359,18.651 19.5,18.291 19.5,17.885C19.5,17.479 19.359,17.135 19.078,16.854C18.797,16.541 18.438,16.385 18,16.385C17.563,16.385 17.203,16.541 16.922,16.854C16.641,17.135 16.5,17.479 16.5,17.885C16.5,18.291 16.641,18.651 16.922,18.963ZM19.5,10.385L17.016,10.385L17.016,12.869L21.469,12.869L19.5,10.385ZM4.922,18.963C5.203,19.244 5.563,19.385 6,19.385C6.438,19.385 6.797,19.244 7.078,18.963C7.359,18.651 7.5,18.291 7.5,17.885C7.5,17.479 7.359,17.135 7.078,16.854C6.797,16.541 6.438,16.385 6,16.385C5.563,16.385 5.203,16.541 4.922,16.854C4.641,17.135 4.5,17.479 4.5,17.885C4.5,18.291 4.641,18.651 4.922,18.963ZM20.016,8.885L23.016,12.869L23.016,17.885L21,17.885C21,18.697 20.703,19.401 20.109,19.994C19.516,20.588 18.813,20.885 18,20.885C17.188,20.885 16.484,20.588 15.891,19.994C15.297,19.401 15,18.697 15,17.885L9,17.885C9,18.697 8.703,19.401 8.109,19.994C7.516,20.588 6.813,20.885 6,20.885C5.188,20.885 4.484,20.588 3.891,19.994C3.297,19.401 3,18.697 3,17.885L0.984,17.885L0.984,6.869C0.984,6.338 1.188,5.869 1.594,5.463C2,5.057 2.469,4.854 3,4.854L17.016,4.854L17.016,8.885L20.016,8.885Z" style="fill:none;fill-rule:nonzero;stroke:white;stroke-width:2.2px;"/>
        <path d="M16.922,18.963C17.203,19.244 17.563,19.385 18,19.385C18.438,19.385 18.797,19.244 19.078,18.963C19.359,18.651 19.5,18.291 19.5,17.885C19.5,17.479 19.359,17.135 19.078,16.854C18.797,16.541 18.438,16.385 18,16.385C17.563,16.385 17.203,16.541 16.922,16.854C16.641,17.135 16.5,17.479 16.5,17.885C16.5,18.291 16.641,18.651 16.922,18.963ZM19.5,10.385L17.016,10.385L17.016,12.869L21.469,12.869L19.5,10.385ZM4.922,18.963C5.203,19.244 5.563,19.385 6,19.385C6.438,19.385 6.797,19.244 7.078,18.963C7.359,18.651 7.5,18.291 7.5,17.885C7.5,17.479 7.359,17.135 7.078,16.854C6.797,16.541 6.438,16.385 6,16.385C5.563,16.385 5.203,16.541 4.922,16.854C4.641,17.135 4.5,17.479 4.5,17.885C4.5,18.291 4.641,18.651 4.922,18.963ZM20.016,8.885L23.016,12.869L23.016,17.885L21,17.885C21,18.697 20.703,19.401 20.109,19.994C19.516,20.588 18.813,20.885 18,20.885C17.188,20.885 16.484,20.588 15.891,19.994C15.297,19.401 15,18.697 15,17.885L9,17.885C9,18.697 8.703,19.401 8.109,19.994C7.516,20.588 6.813,20.885 6,20.885C5.188,20.885 4.484,20.588 3.891,19.994C3.297,19.401 3,18.697 3,17.885L0.984,17.885L0.984,6.869C0.984,6.338 1.188,5.869 1.594,5.463C2,5.057 2.469,4.854 3,4.854L17.016,4.854L17.016,8.885L20.016,8.885Z" style="fill:rgb(123,31,162);fill-rule:nonzero;"/>
    </g>
    <g transform="matrix(1.81844,0,0,1.81844,2.17875,816.337)">
        <path d="M16.922,18.963C17.203,19.244 17.563,19.385 18,19.385C18.438,19.385 18.797,19.244 19.078,18.963C19.359,18.651 19.5,18.291 19.5,17.885C19.5,17.479 19.359,17.135 19.078,16.854C18.797,16.541 18.438,16.385 18,16.385C17.563,16.385 17.203,16.541 16.922,16.854C16.641,17.135 16.5,17.479 16.5,17.885C16.5,18.291 16.641,18.651 16.922,18.963ZM19.5,10.385L17.016,10.385L17.016,12.869L21.469,12.869L19.5,10.385ZM4.922,18.963C5.203,19.244 5.563,19.385 6,19.385C6.438,19.385 6.797,19.244 7.078,18.963C7.359,18.651 7.5,18.291 7.5,17.885C7.5,17.479 7.359,17.135 7.078,16.854C6.797,16.541 6.438,16.385 6,16.385C5.563,16.385 5.203,16.541 4.922,16.854C4.641,17.135 4.5,17.479 4.5,17.885C4.5,18.291 4.641,18.651 4.922,18.963ZM20.016,8.885L23.016,12.869L23.016,17.885L21,17.885C21,18.697 20.703,19.401 20.109,19.994C19.516,20.588 18.813,20.885 18,20.885C17.188,20.885 16.484,20.588 15.891,19.994C15.297,19.401 15,18.697 15,17.885L9,17.885C9,18.697 8.703,19.401 8.109,19.994C7.516,20.588 6.813,20.885 6,20.885C5.188,20.885 4.484,20.588 3.891,19.994C3.297,19.401 3,18.697 3,17.885L0.984,17.885L0.984,6.869C0.984,6.338 1.188,5.869 1.594,5.463C2,5.057 2.469,4.854 3,4.854L17.016,4.854L17.016,8.885L20.016,8.885Z" style="fill:none;fill-rule:nonzero;stroke:white;stroke-width:2.2px;"/>
        <path d="M16.922,18.963C17.203,19.244 17.563,19.385 18,19.385C18.438,19.385 18.797,19.244 19.078,18.963C19.359,18.651 19.5,18.291 19.5,17.885C19.5,17.479 19.359,17.135 19.078,16.854C18.797,16.541 18.438,16.385 18,16.385C17.563,16.385 17.203,16.541 16.922,16.854C16.641,17.135 16.5,17.479 16.5,17.885C16.5,18.291 16.641,18.651 16.922,18.963ZM19.5,10.385L17.016,10.385L17.016,12.869L21.469,12.869L19.5,10.385ZM4.922,18.963C5.203,19.244 5.563,19.385 6,19.385C6.438,19.385 6.797,19.244 7.078,18.963C7.359,18.651 7.5,18.291 7.5,17.885C7.5,17.479 7.359,17.135 7.078,16.854C6.797,16.541 6.438,16.385 6,16.385C5.563,16.385 5.203,16.541 4.922,16.854C4.641,17.135 4.5,17.479 4.5,17.885C4.5,18.291 4.641,18.651 4.922,18.963ZM20.016,8.885L23.016,12.869L23.016,17.885L21,17.885C21,18.697 20.703,19.401 20.109,19.994C19.516,20.588 18.813,20.885 18,20.885C17.188,20.885 16.484,20.588 15.891,19.994C15.297,19.401 15,18.697 15,17.885L9,17.885C9,18.697 8.703,19.401 8.109,19.994C7.516,20.588 6.813,20.885 6,20.885C5.188,20.885 4.484,20.588 3.891,19.994C3.297,19.401 3,18.697 3,17.885L0.984,17.885L0.984,6.869C0.984,6.338 1.188,5.869 1.594,5.463C2,5.057 2.469,4.854 3,4.854L17.016,4.854L17.016,8.885L20.016,8.885Z" style="fill:rgb(211,47,47);fill-rule:nonzero;"/>
    </g>
    <g transform="matrix(1.81844,0,0,1.81844,2.17875,864.337)">
        <path d="M16.922,18.963C17.203,19.244 17.563,19.385 18,19.385C18.438,19.385 18.797,19.244 19.078,18.963C19.359,18.651 19.5,18.291 19.5,17.885C19.5,17.479 19.359,17.135 19.078,16.854C18.797,16.541 18.438,16.385 18,16.385C17.563,16.385 17.203,16.541 16.922,16.854C16.641,17.135 16.5,17.479 16.5,17.885C16.5,18.291 16.641,18.651 16.922,18.963ZM19.5,10.385L17.016,10.385L17.016,12.869L21.469,12.869L19.5,10.385ZM4.922,18.963C5.203,19.244 5.563,19.385 6,19.385C6.438,19.385 6.797,19.244 7.078,18.963C7.359,18.651 7.5,18.291 7.5,17.885C7.5,17.479 7.359,17.135 7.078,16.854C6.797,16.541 6.438,16.385 6,16.385C5.563,16.385 5.203,16.541 4.922,16.854C4.641,17.135 4.5,17.479 4.5,17.885C4.5,18.291 4.641,18.651 4.922,18.963ZM20.016,8.885L23.016,12.869L23.016,17.885L21,17.885C21,18.697 20.703,19.401 20.109,19.994C19.516,20.588 18.813,20.885 18,20.885C17.188,20.885 16.484,20.588 15.891,19.994C15.297,19.401 15,18.697 15,17.885L9,17.885C9,18.697 8.703,19.401 8.109,19.994C7.516,20.588 6.813,20.885 6,20.885C5.188,20.885 4.484,20.588 3.891,19.994C3.297,19.401 3,18.697 3,17.885L0.984,17.885L0.984,6.869C0.984,6.338 1.188,5.869 1.594,5.463C2,5.057 2.469,4.854 3,4.854L17.016,4.854L17.016,8.885L20.016,8.885Z" style="fill:none;fill-rule:nonzero;stroke:white;stroke-width:2.2px;"/>
        <path d="M16.922,18.963C17.203,19.244 17.563,19.385 18,19.385C18.438,19.385 18.797,19.244 19.078,18.963C19.359,18.651 19.5,18.291 19.5,17.885C19.5,17.479 19.359,17.135 19.078,16.854C18.797,16.541 18.438,16.385 18,16.385C17.563,16.385 17.203,16.541 16.922,16.854C16.641,17.135 16.5,17.479 16.5,17.885C16.5,18.291 16.641,18.651 16.922,18.963ZM19.5,10.385L17.016,10.385L17.016,12.869L21.469,12.869L19.5,10.385ZM4.922,18.963C5.203,19.244 5.563,19.385 6,19.385C6.438,19.385 6.797,19.244 7.078,18.963C7.359,18.651 7.5,18.291 7.5,17.885C7.5,17.479 7.359,17.135 7.078,16.854C6.797,16.541 6.438,16.385 6,16.385C5.563,16.385 5.203,16.541 4.922,16.854C4.641,17.135 4.5,17.479 4.5,17.885C4.5,18.291 4.641,18.651 4.922,18.963ZM20.016,8.885L23.016,12.869L23.016,17.885L21,17.885C21,18.697 20.703,19.401 20.109,19.994C19.516,20.588 18.813,20.885 18,20.885C17.188,20.885 16.484,20.588 15.891,19.994C15.297,19.401 15,18.697 15,17.885L9,17.885C9,18.697 8.703,19.401 8.109,19.994C7.516,20.588 6.813,20.885 6,20.885C5.188,20.885 4.484,20.588 3.891,19.994C3.297,19.401 3,18.697 3,17.885L0.984,17.885L0.984,6.869C0.984,6.338 1.188,5.869 1.594,5.463C2,5.057 2.469,4.854 3,4.854L17.016,4.854L17.016,8.885L20.016,8.885Z" style="fill:rgb(0,121,107);fill-rule:nonzero;"/>
    </g>
    <g transform="matrix(1.81844,0,0,1.81844,2.17875,912.337)">
        <path d="M16.922,18.963C17.203,19.244 17.563,19.385 18,19.385C18.438,19.385 18.797,19.244 19.078,18.963C19.359,18.651 19.5,18.291 19.5,17.885C19.5,17.479 19.359,17.135 19.078,16.854C18.797,16.541 18.438,16.385 18,16.385C17.563,16.385 17.203,16.541 16.922,16.854C16.641,17.135 16.5,17.479 16.5,17.885C16.5,18.291 16.641,18.651 16.922,18.963ZM19.5,10.385L17.016,10.385L17.016,12.869L21.469,12.869L19.5,10.385ZM4.922,18.963C5.203,19.244 5.563,19.385 6,19.385C6.438,19.385 6.797,19.244 7.078,18.963C7.359,18.651 7.5,18.291 7.5,17.885C7.5,17.479 7.359,17.135 7.078,16.854C6.797,16.541 6.438,16.385 6,16.385C5.563,16.385 5.203,16.541 4.922,16.854C4.641,17.135 4.5,17.479 4.5,17.885C4.5,18.291 4.641,18.651 4.922,18.963ZM20.016,8.885L23.016,12.869L23.016,17.885L21,17.885C21,18.697 20.703,19.401 20.109,19.994C19.516,20.588 18.813,20.885 18,20.885C17.188,20.885 16.484,20.588 15.891,19.994C15.297,19.401 15,18.697 15,17.885L9,17.885C9,18.697 8.703,19.401 8.109,19.994C7.516,20.588 6.813,20.885 6,20.885C5.188,20.885 4.484,20.588 3.891,19.994C3.297,19.401 3,18.697 3,17.885L0.984,17.885L0.984,6.869C0.984,6.338 1.188,5.869 1.594,5.463C2,5.057 2.469,4.854 3,4.854L17.016,4.854L17.016,8.885L20.016,8.885Z" style="fill:none;fill-rule:nonzero;stroke:white;stroke-width:2.2px;"/>
        <path d="M16.922,18.963C17.203,19.244 17.563,19.385 18,19.385C18.438,19.385 18.797,19.244 19.078,18.963C19.359,18.651 19.5,18.291 19.5,17.885C19.5,17.479 19.359,17.135 19.078,16.854C18.797,16.541 18.438,16.385 18,16.385C17.563,16.385 17.203,16.541 16.922,16.854C16.641,17.135 16.5,17.479 16.5,17.885C16.5,18.291 16.641,18.651 16.922,18.963ZM19.5,10.385L17.016,10.385L17.016,12.869L21.469,12.869L19.5,10.385ZM4.922,18.963C5.203,19.244 5.563,19.385 6,19.385C6.438,19.385 6.797,19.244 7.078,18.963C7.359,18.651 7.5,18.291 7.5,17.885C7.5,17.479 7.359,17.135 7.078,16.854C6.797,16.541 6.438,16.385 6,16.385C5.563,16.385 5.203,16.541 4.922,16.854C4.641,17.135 4.5,17.479 4.5,17.885C4.5,18.291 4.641,18.651 4.922,18.963ZM20.016,8.885L23.016,12.869L23.016,17.885L21,17.885C21,18.697 20.703,19.401 20.109,19.994C19.516,20.588 18.813,20.885 18,20.885C17.188,20.885 16.484,20.588 15.891,19.994C15.297,19.401 15,18.697 15,17.885L9,17.885C9,18.697 8.703,19.401 8.109,19.994C7.516,20.588 6.813,20.885 6,20.885C5.188,20.885 4.484,20.588 3.891,19.994C3.297,19.401 3,18.697 3,17.885L0.984,17.885L0.984,6.869C0.984,6.338 1.188,5.869 1.594,5.463C2,5.057 2.469,4.854 3,4.854L17.016,4.854L17.016,8.885L20.016,8.885Z" style="fill:white;fill-rule:nonzero;"/>
    </g>
    <g transform="matrix(1.81844,0,0,1.81844,2.17875,960.337)">
        <path d="M16.922,18.963C17.203,19.244 17.563,19.385 18,19.385C18.438,19.385 18.797,19.244 19.078,18.963C19.359,18.651 19.5,18.291 19.5,17.885C19.5,17.479 19.359,17.135 19.078,16.854C18.797,16.541 18.438,16.385 18,16.385C17.563,16.385 17.203,16.541 16.922,16.854C16.641,17.135 16.5,17.479 16.5,17.885C16.5,18.291 16.641,18.651 16.922,18.963ZM19.5,10.385L17.016,10.385L17.016,12.869L21.469,12.869L19.5,10.385ZM4.922,18.963C5.203,19.244 5.563,19.385 6,19.385C6.438,19.385 6.797,19.244 7.078,18.963C7.359,18.651 7.5,18.291 7.5,17.885C7.5,17.479 7.359,17.135 7.078,16.854C6.797,16.541 6.438,16.385 6,16.385C5.563,16.385 5.203,16.541 4.922,16.854C4.641,17.135 4.5,17.479 4.5,17.885C4.5,18.291 4.641,18.651 4.922,18.963ZM20.016,8.885L23.016,12.869L23.016,17.885L21,17.885C21,18.697 20.703,19.401 20.109,19.994C19.516,20.588 18.813,20.885 18,20.885C17.188,20.885 16.484,20.588 15.891,19.994C15.297,19.401 15,18.697 15,17.885L9,17.885C9,18.697 8.703,19.401 8.109,19.994C7.516,20.588 6.813,20.885 6,20.885C5.188,20.885 4.484,20.588 3.891,19.994C3.297,19.401 3,18.697 3,17.885L0.984,17.885L0.984,6.869C0.984,6.338 1.188,5.869 1.594,5.463C2,5.057 2.469,4.854 3,4.854L17.016,4.854L17.016,8.885L20.016,8.885Z" style="fill:none;fill-rule:nonzero;stroke:white;stroke-width:2.2px;"/>
        <path d="M16.922,18.963C17.203,19.244 17.563,19.385 18,19.385C18.438,19.385 18.797,19.244 19.078,18.963C19.359,18.651 19.5,18.291 19.5,17.885C19.5,17.479 19.359,17.135 19.078,16.854C18.797,16.541 18.438,16.385 18,16.385C17.563,16.385 17.203,16.541 16.922,16.854C16.641,17.135 16.5,17.479 16.5,17.885C16.5,18.291 16.641,18.651 16.922,18.963ZM19.5,10.385L17.016,10.385L17.016,12.869L21.469,12.869L19.5,10.385ZM4.922,18.963C5.203,19.244 5.563,19.385 6,19.385C6.438,19.385 6.797,19.244 7.078,18.963C7.359,18.651 7.5,18.291 7.5,17.885C7.5,17.479 7.359,17.135 7.078,16.854C6.797,16.541 6.438,16.385 6,16.385C5.563,16.385 5.203,16.541 4.922,16.854C4.641,17.135 4.5,17.479 4.5,17.885C4.5,18.291 4.641,18.651 4.922,18.963ZM20.016,8.885L23.016,12.869L23.016,17.885L21,17.885C21,18.697 20.703,19.401 20.109,19.994C19.516,20.588 18.813,20.885 18,20.885C17.188,20.885 16.484,20.588 15.891,19.994C15.297,19.401 15,18.697 15,17.885L9,17.885C9,18.697 8.703,19.401 8.109,19.994C7.516,20.588 6.813,20.885 6,20.885C5.188,20.885 4.484,20.588 3.891,19.994C3.297,19.401 3,18.697 3,17.885L0.984,17.885L0.984,6.869C0.984,6.338 1.188,5.869 1.594,5.463C2,5.057 2.469,4.854 3,4.854L17.016,4.854L17.016,8.885L20.016,8.885Z" style="fill:rgb(251,192,45);fill-rule:nonzero;"/>
    </g>
</svg>
