<svg width="811" height="471.25" fill="none" version="1.1" viewBox="0 0 811 471.25" xmlns="http://www.w3.org/2000/svg">
 <g transform="translate(-308,-349.5)" clip-path="url(#clip0)">
  <mask x="0" y="0" width="1440" height="64" mask-type="alpha" maskUnits="userSpaceOnUse">
   <rect width="1440" height="64" fill="#fff"/>
  </mask>
  <mask x="0" y="0" width="1440" height="64" mask-type="alpha" maskUnits="userSpaceOnUse">
   <path d="m0 0h1440v64h-1440z" clip-rule="evenodd" fill="#fff" fill-rule="evenodd"/>
  </mask>
  <mask x="0" y="0" width="1440" height="64" mask-type="alpha" maskUnits="userSpaceOnUse">
   <path d="m0 0h1440v64h-1440z" clip-rule="evenodd" fill="#fff" fill-rule="evenodd"/>
  </mask>
  <path d="m910.67 789.66h-419.01v-439.66h424.52v187.04" fill="#fff"/>
  <g stroke="#3c4043" stroke-linecap="round" stroke-linejoin="round" stroke-miterlimit="10">
   <path d="m910.67 789.66h-419.01v-439.66h424.52v187.04"/>
   <path d="m587.76 708.74h225.02"/>
   <path d="m587.76 677.12h225.02"/>
   <path d="m587.76 645.5h225.02"/>
   <path d="m587.76 613.88h225.02"/>
   <path d="m587.76 582.26h225.02"/>
   <path d="m587.76 550.66h225.02"/>
   <path d="m491.66 373.72h424.52"/>
   <path d="m494.5 790.25h-186"/>
   <path d="m507.6 366.52c2.187 0 3.96-1.773 3.96-3.96s-1.773-3.96-3.96-3.96-3.96 1.773-3.96 3.96 1.773 3.96 3.96 3.96z" fill="#fff"/>
   <path d="m524.1 366.52c2.187 0 3.96-1.773 3.96-3.96s-1.773-3.96-3.96-3.96-3.96 1.773-3.96 3.96 1.773 3.96 3.96 3.96z" fill="#fff"/>
  </g>
  <path d="m851.7 428.76h-295.54v48.12h295.54z" fill="#ea4335" stroke="#ea4335" stroke-linecap="round" stroke-linejoin="round" stroke-miterlimit="10"/>
  <path d="m556.15 476.87h295.54" stroke="#3c4043" stroke-linecap="round" stroke-linejoin="round" stroke-miterlimit="10"/>
  <path d="m828.52 476.87h8.205s3.645 0 3.645-4.785c0-8.895-8.685-31.47-11.865-39.225-4.38-10.65-18.72-11.085-37.845-10.035-20.04 1.095-32.82 7.305-36.465 21.435-3.645 14.145-7.8 23.085-7.35 32.67s8.205 8.67 15.96 8.205c7.755-0.45 50.655-8.04 50.655-8.04l-1.83-13.23s-32.505-0.9-43.455 1.38" fill="#fff"/>
  <g stroke="#3c4043" stroke-linecap="round" stroke-linejoin="round" stroke-miterlimit="10">
   <path d="m828.52 476.87h8.205s3.645 0 3.645-4.785c0-8.895-8.685-31.47-11.865-39.225-4.38-10.65-18.72-11.085-37.845-10.035-20.04 1.095-32.82 7.305-36.465 21.435-3.645 14.145-7.8 23.085-7.35 32.67s8.205 8.67 15.96 8.205c7.755-0.45 50.655-8.04 50.655-8.04l-1.83-13.23s-32.505-0.9-43.455 1.38"/>
   <path d="m770.26 447.76-2.13 17.43"/>
   <path d="m813.48 477.11 15.045 0.45s0.225-1.83-0.69-4.11-10.845-5.265-15.63-5.49z" fill="#a06549"/>
   <path d="m813.64 440.57c0.66 4.26 3.945 14.19 5.505 19.44-5.835 0.78-21.195 3.69-21.195 3.69"/>
   <path d="m777.04 408.38c-1.23 5.745 0 16.71 3.105 20.205s6.99 0.39 8.55-1.56c0 2.325-0.39 4.86-0.39 4.86 3.105 1.56 11.265-3.69 11.655-9.525-1.17-2.325-0.975-1.755-1.365-3.105 0.585-2.325 3.69-2.325 2.91-10.485s-7.77-10.875-13.215-10.485-10.095 4.65-11.25 10.095z" fill="#a06549"/>
  </g>
  <path d="m777.04 408.38c3.75 1.815 10.41 1.035 14.205 0v6.825c2.25-2.94 4.05-1.98 4.05 0s-0.78 2.115-2.325 4.83c-1.56 2.715 3.39 1.455 5.64-0.78 3.015-2.985 4.245-4.38 2.91-10.485-2.07-9.45-8.025-10.485-13.215-10.485s-10.86 6.765-11.265 10.095z" fill="#3c4043"/>
  <g stroke-linecap="round" stroke-linejoin="round" stroke-miterlimit="10">
   <path d="m786.79 428.76 4.605-4.815s0.285 4.83-3.09 7.92c-1.515-1.2-1.515-3.105-1.515-3.105z" fill="#3c4043" stroke="#3c4043"/>
   <path d="m917.72 536.98h-205.02v49.62h295.54v-49.62z" fill="#fff" stroke="#3c4043"/>
   <path d="m774.53 545.75h-52.028v22.5h75v-22.5z" fill="#4285f4" stroke="#4285f4"/>
  </g>
  <g stroke="#3c4043" stroke-linecap="round" stroke-linejoin="round" stroke-miterlimit="10">
   <path d="m712.7 586.6 183.26 7.98v-7.98z" fill="#3c4043"/>
   <path d="m773.38 493.36-281.72 1.005v7.35z" fill="#3c4043"/>
   <path d="m773.5 445.25h-295.5v48h295.5z" fill="#fff"/>
  </g>
  <g stroke-linecap="round" stroke-linejoin="round" stroke-miterlimit="10">
   <path d="m773.5 445.25h-295.5v10.5h295.5z" fill="#fbbc04" stroke="#fbbc04"/>
   <path d="m773.5 460.25v-15h-295.5v15" stroke="#3c4043"/>
   <path d="m1015.3 815.27c0-10.95 4.86-38.31 13.29-53.67" stroke="#3c4043"/>
  </g>
  <g fill="#fff" stroke="#3c4043" stroke-linecap="round" stroke-linejoin="round" stroke-miterlimit="10">
   <path d="m1015.3 815.27c1.86-5.325 17.97-27.825 23.15-32.985 0 11.235-10.41 27.045-23.15 32.985z"/>
   <path d="m1015.3 815.27c-0.99-9.12-8.97-44.025-17.864-51.09-2.745 14.82 10.874 41.28 17.864 51.09z"/>
   <path d="m1028.6 766.14c2.52 0 4.56-2.042 4.56-4.56s-2.04-4.56-4.56-4.56-4.56 2.042-4.56 4.56 2.04 4.56 4.56 4.56z"/>
  </g>
  <g stroke="#3c4043" stroke-linecap="round" stroke-linejoin="round" stroke-miterlimit="10">
   <path d="m865 815.75h253.5"/>
   <path d="m963.25 791.12s3.945 7.47-0.795 12.285c-4.725 4.815-13.92 8.67-16.56 10.605-1.965 1.44 9.825 2.535 19.65 1.335 3.27-0.405 6.135-1.8 8.925-2.76 10.635-3.675 13.425-7.32 13.425-7.32l-10.47-22.08z" fill="#fff"/>
   <path d="m902.41 793.28s-0.87 8.67-7.86 11.805-16.29 5.355-16.53 7.95c-0.33 3.57 19.275 2.895 31.08 2.895s13.005-2.175 13.005-2.175l-0.72-23.37z" fill="#fff"/>
  </g>
  <path d="m953.84 625.68c0.645 12.78 5.85 10.335 3.855 38.4-2.01 28.065-3.21 44.91 1.605 59.745s20.445 61.425 20.445 61.425-5.175 4.41-9.195 6.27-10.47 2.955-10.47 2.955-32.46-56.13-37.665-87.81" fill="#d2e3fc"/>
  <g stroke="#3c4043" stroke-linecap="round" stroke-linejoin="round" stroke-miterlimit="10">
   <path d="m953.84 625.68c0.645 12.78 5.85 10.335 3.855 38.4-2.01 28.065-3.21 44.91 1.605 59.745s20.445 61.425 20.445 61.425-5.175 4.41-9.195 6.27-10.47 2.955-10.47 2.955-32.46-56.13-37.665-87.81"/>
   <path d="m979.75 785.24s-5.175 4.41-9.195 6.27-10.47 2.955-10.47 2.955"/>
   <path d="m864.82 584.33s-12.54-2.745-14.67-2.745-2.43 1.98 0 2.58 5.175 1.215 5.475 2.43h-14.115c1.5 2.505 4.77 3.75 9.255 4.8 4.065 0.945 9.12 1.74 13.98 1.74 3.12-0.135 26.37 12.36 26.37 11.07 0.015-2.565 0-7.98 0-14.37-11.43-1.14-26.295-5.505-26.295-5.505z" fill="#dd8861"/>
   <path d="m992.02 543.24-7.86-0.225-12.96 33.495s10.725 12.075 13.725-0.66c2.79-11.895 5.79-22.425 7.095-32.61z" fill="#dd8861"/>
   <path d="m904.14 632.2c0 1.875 4.38 3.345 7.56 3.57s2.04-4.425 2.04-4.425z" fill="#3c4043"/>
  </g>
  <path d="m945.24 664.97s-3.72 10.035-6.525 17.985c-3.255 9.21-16.05 111.92-16.05 111.92s-7.95 2.22-12.78 2.295c-5.19 0.075-12.33-2.295-12.33-2.295s0.405-31.68 4.005-72.165 9.915-95.82 9.915-95.82l42.36 4.86" fill="#d2e3fc"/>
  <path d="m945.24 664.97s-3.72 10.035-6.525 17.985c-3.255 9.21-16.05 111.92-16.05 111.92s-7.95 2.22-12.78 2.295c-5.19 0.075-12.33-2.295-12.33-2.295s0.405-31.68 4.005-72.165 9.915-95.82 9.915-95.82l42.36 4.86" stroke="#d2e3fc" stroke-linecap="round" stroke-linejoin="round" stroke-miterlimit="10"/>
  <path d="m973.6 570.74-0.795 1.95s-7.485-15.825-8.955-18.75c-1.5-3.315-6.255-6.36-8.13-7.14-4.845-2.43-17.28-3.51-24.24-3.51-15.96 0-25.845 2.1-29.955 17.61s-6.06 29.595-6.06 29.595l-4.335-0.69-2.055 14.37c5.31 2.13 11.37 5.16 16.17 5.205l-0.195 0.51c-0.75 5.7-0.915 13.17-0.915 22.305 15.105-1.68 35.19-1.68 51.21-0.45 0 0-0.195-27.45 2.775-44.13 3.915 4.5 7.17 8.4 10.23 9.135 4.665 1.125 7.965-2.49 11.4-7.905 1.89-2.985 3.225-7.425 5.19-13.005z" fill="#fff" stroke="#3c4043" stroke-linecap="round" stroke-linejoin="round" stroke-miterlimit="10"/>
  <path d="m921.01 568.4c-3.525 14.76-6.84 37.395-11.85 40.14-5.01 2.73-13.185-1.575-20.085-4.335" fill="#fff"/>
  <g stroke="#3c4043" stroke-linecap="round" stroke-linejoin="round" stroke-miterlimit="10">
   <path d="m921.01 568.4c-3.525 14.76-6.84 37.395-11.85 40.14-5.01 2.73-13.185-1.575-20.085-4.335"/>
   <path d="m895.46 590.51-1.83 15.495"/>
   <path d="m948.04 527.03c0-6.885-5.58-12.465-12.465-12.465s-12.945 5.925-13.77 12.93c-0.3 2.565-0.51 7.425 0.825 9.42 1.32 1.965 4.845 1.695 7.485 1.65l-1.215 4.74 11.805 2.205 2.25-9.195c3.075-1.92 5.085-5.16 5.085-9.285z" fill="#dd8861"/>
   <path d="m933.48 528.56c0.48-0.93 1.245-1.71 1.575-2.7s-0.03-2.355-1.065-2.55c-0.93-0.18-1.785 0.69-2.73 0.615-0.6-0.9-0.765-2.055-0.45-3.075 0.225-0.72 0.675-1.41 0.6-2.16-0.075-0.825-0.765-1.44-1.23-2.115-1.02-1.455-1.095-3.51-0.21-5.04 0.15-0.27 0.375-0.54 0.69-0.54 0.66 0.015 0.6 1.125 1.17 1.485 0.345-1.2 1.425-2.145 2.655-2.325 0.195-0.03 0.42-0.03 0.585 0.09 0.21 0.15 0.24 0.42 0.345 0.66 0.45 1.02 1.935 0.915 2.985 0.525s2.31-0.885 3.18-0.18c0.75 0.615 0.705 1.8 1.29 2.565 0.585 0.78 1.635 0.99 2.475 1.44 1.32 0.705 2.415 1.68 3.15 2.97 1.485 2.595 1.35 7.2 1.125 9.06-0.495 4.35-4.215 8.055-7.71 10.47-3.135 2.175-6.57-0.495-8.1-3.42-0.915-1.77-1.275-3.93-0.33-5.775z" fill="#fbbc04"/>
  </g>
  <path d="m983.24 544.01s-2.325-6.285-3.27-7.815 1.785-1.68 2.865-0.48 2.7 2.25 2.7 2.25-3.405-2.1-2.49-3c2.025-1.995 3.12-1.92 5.025-1.755 2.325 0.195 5.46 1.785 6.3 3.465 0.585 1.155-1.485 3.825-2.4 8.4" fill="#dd8861"/>
  <g stroke="#3c4043" stroke-linecap="round" stroke-linejoin="round" stroke-miterlimit="10">
   <path d="m983.24 544.01s-2.325-6.285-3.27-7.815 1.785-1.68 2.865-0.48 2.7 2.25 2.7 2.25-3.405-2.1-2.49-3c2.025-1.995 3.12-1.92 5.025-1.755 2.325 0.195 5.46 1.785 6.3 3.465 0.585 1.155-1.485 3.825-2.4 8.4"/>
   <path d="m900.36 796.22s6.975 6.84 20.67 3.885c0.27-2.955 0.135-4.695 0.135-4.695s-5.37 2.01-11.28 1.74-9.525-0.93-9.525-0.93z" fill="#3c4043"/>
   <path d="m978.38 787.22s-4.95 9.09-13.875 13.245c0.645-3.51 0-6.705 0-6.705s4.95-1.44 7.02-2.715 6.855-3.825 6.855-3.825z" fill="#3c4043"/>
  </g>
  <path d="m945.24 664.97s-3.72 10.035-6.525 17.985c-3.255 9.21-16.05 111.92-16.05 111.92s-7.95 2.22-12.78 2.295c-5.19 0.075-12.33-2.295-12.33-2.295" fill="#d2e3fc"/>
  <path d="m945.24 664.97s-3.72 10.035-6.525 17.985c-3.255 9.21-16.05 111.92-16.05 111.92s-7.95 2.22-12.78 2.295c-5.19 0.075-12.33-2.295-12.33-2.295" stroke="#3c4043" stroke-linecap="round" stroke-linejoin="round" stroke-miterlimit="10"/>
  <path d="m983.08 580.08-10.26-7.395" stroke="#3c4043" stroke-linecap="round" stroke-linejoin="round" stroke-miterlimit="10"/>
  <path d="m958.1 587.62c0.765-4.8 1.02-15.99 1.02-15.99z" fill="#fff"/>
  <path d="m958.1 587.62c0.765-4.8 1.02-15.99 1.02-15.99" stroke="#3c4043" stroke-linecap="round" stroke-linejoin="round" stroke-miterlimit="10"/>
  <path d="m933.89 511.64c-2.025-6.45-4.11-10.59-1.08-11.28 2.88-0.645 5.49 10.89 5.49 10.89" fill="#fff"/>
  <g stroke="#3c4043" stroke-linecap="round" stroke-linejoin="round" stroke-miterlimit="10">
   <path d="m933.89 511.64c-2.025-6.45-4.11-10.59-1.08-11.28 2.88-0.645 5.49 10.89 5.49 10.89"/>
   <path d="m933.9 511.64c7.08-2.655 14.985 0.93 17.64 8.01 2.654 7.08-0.93 14.985-8.01 17.64-4.395-6.555-7.965-17.55-9.63-25.65z" fill="#fff"/>
   <path d="m424.09 753.59-9.165 12.87-9.885-7.995 8.865-12.99z" fill="#eaa486"/>
   <path d="m405.04 758.46-11.25 15.135 4.05 3.645s8.355 7.695 15.18 10.365c6.84 2.685 13.095 1.89 13.095 1.89s1.905-3.21-2.475-5.295c-6.975-3.315-10.2-10.455-7.23-17.175z" fill="#fff"/>
   <path d="m424.09 753.59-11.31-4.545-2.61 3.465z" fill="#3c4043"/>
  </g>
  <path d="m451.84 621.64c1.695 24.42 6.39 112.38 5.64 134.04-4.98 2.325-13.275 1.995-21.9 1.995-10.29-35.175-22.23-89.25-22.23-112.48s3.975-39.81 6.345-49.83h45.045c4.68 31.575 9.33 74.535 9.33 94.455 0 5.655 0.42 7.455-6.3 17.175-12.42 17.955-33.975 43.56-38.49 50.685-8.625-2.325-13.605-6.975-19.245-13.605 8.625-15.93 21.24-48.435 21.24-48.435" fill="#fff"/>
  <g stroke="#3c4043" stroke-linecap="round" stroke-linejoin="round" stroke-miterlimit="10">
   <path d="m451.84 621.64c1.695 24.42 6.39 112.38 5.64 134.04-4.98 2.325-13.275 1.995-21.9 1.995-10.29-35.175-22.23-89.25-22.23-112.48s3.975-39.81 6.345-49.83h45.045c4.68 31.575 9.33 74.535 9.33 94.455 0 5.655 0.42 7.455-6.3 17.175-12.42 17.955-33.975 43.56-38.49 50.685-8.625-2.325-13.605-6.975-19.245-13.605 8.625-15.93 21.24-48.435 21.24-48.435"/>
   <path d="m433.76 751.31c-1.545 2.01-3.36 4.575-4.485 6.345-8.625-2.325-13.605-6.975-19.245-13.605"/>
   <path d="m467.77 706.98c-2.565 3.72-7.725 10.65-10.845 14.79"/>
  </g>
  <path d="m451.84 621.64c1.695 24.42 6.39 112.38 5.64 134.04-4.98 2.325-13.275 1.995-21.9 1.995-10.29-35.175-22.23-89.25-22.23-112.48s3.975-39.81 6.345-49.83" fill="#fff"/>
  <path d="m451.84 621.64c1.695 24.42 6.39 112.38 5.64 134.04-4.98 2.325-13.275 1.995-21.9 1.995-10.29-35.175-22.23-89.25-22.23-112.48s3.975-39.81 6.345-49.83" stroke="#3c4043" stroke-linecap="round" stroke-linejoin="round" stroke-miterlimit="10"/>
  <path d="m415.75 562.25 6 18 17.25 6 18.75-27.75-34.5-4.5z" fill="#d2e3fc"/>
  <path d="m460.59 595.37h-40.89c0-10.98-1.53-26.895-4.245-34.32" fill="#d2e3fc"/>
  <path d="m460.59 595.37h-40.89c0-10.98-1.53-26.895-4.245-34.32" stroke="#3c4043" stroke-linecap="round" stroke-linejoin="round" stroke-miterlimit="10"/>
  <path d="m422.26 558.36c-8.79 3.51-22.875 23.895-22.875 23.895 5.61 3.15 17.52 7.89 20.325 8.955s-1.965 20.745-6.3 20.625-27.375-7.83-34.98-13.845c-6.93-5.475-0.72-20.355 1.815-25.92 4.17-9.15 23.925-41.895 46.095-42.27 4.74 3.615 16.92 6.795 24.855-0.225 8.895 0.975 27.405 8.145 34.095 8.145 7.35-8.625 10.56-18.51 13.755-23.295s21.06 3.795 19.845 8.265c-1.23 4.47-13.29 28.77-17.955 34.53-3.015 3.72-6.69 3.66-11.805 3.66s-22.335-0.33-22.335-0.33" fill="#d2e3fc"/>
  <path d="m422.26 558.36c-8.79 3.51-22.875 23.895-22.875 23.895 5.61 3.15 17.52 7.89 20.325 8.955s-1.965 20.745-6.3 20.625-27.375-7.83-34.98-13.845c-6.93-5.475-0.72-20.355 1.815-25.92 4.17-9.15 23.925-41.895 46.095-42.27 4.74 3.615 16.92 6.795 24.855-0.225 8.895 0.975 27.405 8.145 34.095 8.145 7.35-8.625 10.56-18.51 13.755-23.295s21.06 3.795 19.845 8.265c-1.23 4.47-13.29 28.77-17.955 34.53-3.015 3.72-6.69 3.66-11.805 3.66s-22.335-0.33-22.335-0.33" stroke="#3c4043" stroke-linecap="round" stroke-linejoin="round" stroke-miterlimit="10"/>
  <path d="m459.94 543.34c8.625 15.33 7.725 24.945 4.8 52.02h-34.23" fill="#d2e3fc"/>
  <g stroke="#3c4043" stroke-linecap="round" stroke-linejoin="round" stroke-miterlimit="10">
   <path d="m459.94 543.34c8.625 15.33 7.725 24.945 4.8 52.02h-34.23"/>
   <path d="m518.89 522.7c0.796-1.912-3.003-5.313-8.486-7.597-5.484-2.284-10.574-2.586-11.37-0.674-0.797 1.912 3.003 5.313 8.486 7.597s10.573 2.585 11.37 0.674z" fill="#3c4043"/>
   <path d="m420.9 602.56c1.364-5.781 0.835-10.853-1.181-11.329-2.015-0.475-4.755 3.826-6.119 9.607s-0.835 10.853 1.181 11.329c2.015 0.475 4.755-3.826 6.119-9.607z" fill="#3c4043"/>
  </g>
  <g fill="#eaa486" stroke="#3c4043" stroke-linecap="round" stroke-linejoin="round" stroke-miterlimit="10">
   <path d="m499.59 516.62s8.67-14.205 10.59-17.55 4.305-4.785 9.105-4.785h17.745c0.54 1.695-1.44 3.12-2.925 3.345-2.415 0.36-11.79 3.09-15.975 5.145-5.25 6.945-6.255 20.61-6.255 20.61s-4.5-1.245-7.365-2.91c-2.865-1.65-4.92-3.855-4.92-3.855z"/>
   <path d="m418 592.43c4.95 1.845 13.71 2.55 15.36 3.015l-1.981 10.53c-1.62-0.45-11.399-1.155-17.609-2.175-0.195-4.44 1.575-8.88 4.23-11.37z"/>
   <path d="m443.95 528.52c-1.05-2.625-1.575-4.455-1.575-6.03s2.88-0.765 4.98-1.815 1.05-4.485 0.255-7.635-3.465-13.74-10.23-14.955c-7.35-1.305-15.21 3.15-15.48 10.485s3.945 11.175 8.655 11.805c3.93 0.525 3.15 4.455 1.83 7.875-1.635 0.465-4.665 1.245-6.075 1.56 3.105 2.82 7.83 3.96 12.33 4.02 0.78 0.015 3.495 5.55 4.26 5.505 0.915-0.06-0.135-5.745 0.72-5.88 3.93-0.66 6.99-2.13 7.545-3.87z"/>
  </g>
  <g stroke="#3c4043" stroke-linecap="round" stroke-linejoin="round" stroke-miterlimit="10">
   <path d="m437.4 498.1c0.15 3.93-1.32 8.91-2.73 11.535-1.545-0.705-3.9 0.18-3.9 2.4s2.52 2.805 4.17 2.85c0.555 3.885 1.14 8.955-1.32 12.63-5.955 8.925-18.915 1.005-17.88-5.565s-0.405-6.615 0.315-11.01c1.26-7.875 10.71-14.685 21.345-12.84z" fill="#ea4335"/>
   <path d="m451.56 757.12v16.395h-12.18l-0.585-15.81z" fill="#eaa486"/>
   <path d="m437.85 770.51-0.18 19.155h35.52c-0.48-2.88-1.695-4.59-5.925-5.79-3.51-0.99-14.76-8.1-15.72-13.365z" fill="#fff"/>
   <path d="m453.06 757.12-12.765 0.585 0.135 3.675z" fill="#3c4043"/>
   <path d="m433.36 595.44-3.165 16.92"/>
   <path d="m424.09 713.39-3.24 7.59s5.685 12.645 13.035 30.765c-3.855-13.335-9.795-38.355-9.795-38.355z" fill="#3c4043"/>
   <path d="m622.6 804.76c-8.4 6.495-26.715 9.165-46.56 6.495-4.605-0.615-4.575 3.435-0.765 4.575s31.965 7.95 49.95-3.09 3.045-12.36-2.625-7.98z" fill="#fff"/>
   <path d="m707.42 766.93c-3.885 19.095-4.545 43.41-1.53 47.355 2.841 3.718 5.355 2.218 5.355 5.968h-11.25c-2.145-6.735-4.215-26.968-4.215-39.838s13.545-22.845 11.64-13.485z" fill="#fff"/>
   <path d="m707.42 766.44c-0.795 3.9-1.455 8.025-1.965 12.15l-9.45 9.96c-0.15-3.075-0.24-6.015-0.24-8.625 0-12.87 13.545-22.83 11.655-13.485z" fill="#3c4043"/>
   <path d="m683.99 684.31c1.86-2.443 8.027-7.958 11.428-7.958 4.369 0 6.168 1.828 8.949 1.214 2.782-0.615 9.267-3.372 14.829-5.815 6.712 18.568-7.18 22.824-10.883 27.725-4.142 5.47-1.769 21.25 2.857 34.423 4.625 13.174 3.945 23.886-1.814 31.352-9.826 12.738-22.675 17.234-29.477 20.981-11.338 7.493-14.361 10.49-23.431 19.482l-19.47 14.537c-4.928 0-12.35-1.229-16.053-7.658-6.863-11.899 6.243-25.402 14.27-35.817 8.026-10.401 25.017-29.703 32.742-39.19 7.724-9.486 7.724-13.173 10.188-22.659 2.464-9.487 4.006-28.175 5.865-30.617z" fill="#fff"/>
   <path d="m718.76 671.75-4.725 2.07c2.58 1.785 4.455 2.115 5.94 2.145-0.525-2.115-1.215-4.215-1.215-4.215z" fill="#3c4043"/>
  </g>
  <path d="m654.55 790.25c4.558 5.68 6.859 18.274-4.573 22.843 18.52 0 18.52 3.106 18.52 7.157h-33" fill="#fff"/>
  <path d="m654.55 790.25c4.558 5.68 6.859 18.274-4.573 22.843 18.52 0 18.52 3.106 18.52 7.157h-33" stroke="#3c4043" stroke-linecap="round" stroke-linejoin="round" stroke-miterlimit="10"/>
  <path d="m692.41 764.75c-2.76 3.375-6.135 9.81-7.05 14.4s-3.675 28.815-2.145 34.32c1.14 4.11 6.285 2.01 6.285 6.78h-13.5c-0.75-3.75-1.5-9.75-1.5-15 0 0 0.435-28.86 0.435-37.14" fill="#fff"/>
  <path d="m692.41 764.75c-2.76 3.375-6.135 9.81-7.05 14.4s-3.675 28.815-2.145 34.32c1.14 4.11 6.285 2.01 6.285 6.78h-13.5c-0.75-3.75-1.5-9.75-1.5-15 0 0 0.435-28.86 0.435-37.14" stroke="#3c4043" stroke-linecap="round" stroke-linejoin="round" stroke-miterlimit="10"/>
  <path d="m681.98 688.61c-2.145 1.845-7.35 8.28-7.665 14.1-0.3 5.82 0.615 5.52 3.99 6.735s7.35 3.06 10.11 2.76 4.005-3.69 2.445-7.665c-2.745-7.035-9.495-9.495-8.88-15.93z" fill="#fff" stroke="#3c4043" stroke-linecap="round" stroke-linejoin="round" stroke-miterlimit="10"/>
  <path d="m695.71 682.86c0.779 0 1.41-0.631 1.41-1.41s-0.631-1.41-1.41-1.41-1.41 0.631-1.41 1.41 0.631 1.41 1.41 1.41z" fill="#3c4043"/>
  <g stroke-linecap="round" stroke-linejoin="round">
   <path d="m539.5 657.5h61.5" stroke="#3c4043"/>
   <path d="m755.9 820.25c12.012 0 21.75-9.738 21.75-21.75s-9.738-21.75-21.75-21.75-21.75 9.738-21.75 21.75 9.738 21.75 21.75 21.75z" fill="#34a853" stroke="#34a853" stroke-miterlimit="10"/>
   <path d="m740.06 783.6c-3.66 3.892-5.903 9.133-5.903 14.897 0 12.012 9.738 21.75 21.75 21.75 5.601 0 10.708-2.117 14.563-5.595" stroke="#3c4043" stroke-miterlimit="10"/>
  </g>
 </g>
 <defs>
  <clipPath id="clip0">
   <rect width="1440" height="900" fill="#fff"/>
  </clipPath>
 </defs>
</svg>
