<svg width="24" height="25" viewBox="0 0 24 25" fill="none" xmlns="http://www.w3.org/2000/svg">
    <path d="M20.0156 6.86926C20.5469 6.86926 21 7.07239 21.375 7.47864C21.7812 7.85364 21.9844 8.32239 21.9844 8.88489V18.8693C21.9844 19.4318 21.7812 19.9161 21.375 20.3224C21 20.6974 20.5469 20.8849 20.0156 20.8849H3.98438C3.45312 20.8849 2.98438 20.6974 2.57812 20.3224C2.20312 19.9161 2.01562 19.4318 2.01562 18.8693V6.86926C2.01562 6.30676 2.20312 5.83801 2.57812 5.46301C2.98438 5.05676 3.45312 4.85364 3.98438 4.85364H9.98438L12 6.86926H20.0156ZM18 12.8693V10.8536H15.9844V8.88489H14.0156V10.8536H15.9844V12.8693H14.0156V14.8849H15.9844V16.8536H14.0156V18.8693H15.9844V16.8536H18V14.8849H15.9844V12.8693H18Z" fill="#2196F3"/>
</svg>    